<svg version="1.1" xmlns="http://www.w3.org/2000/svg" viewBox="0 0 1616.0749592687835 984.8528060455665" width="1616.0749592687835" height="984.8528060455665">
  <!-- svg-source:excalidraw -->
  
  <defs>
    <style class="style-fonts">
      @font-face {
        font-family: "Virgil";
        src: url("https://excalidraw.com/Virgil.woff2");
      }
      @font-face {
        font-family: "Cascadia";
        src: url("https://excalidraw.com/Cascadia.woff2");
      }
      @font-face {
        font-family: "Assistant";
        src: url("https://excalidraw.com/Assistant-Regular.woff2");
      }
    </style>
    
  </defs>
  <rect x="0" y="0" width="1616.0749592687835" height="984.8528060455665"></rect><g stroke-linecap="round" transform="translate(10 10) rotate(0 241.86964587666807 482.42640302278323)"><path d="M7.86 8.16 C7.86 8.16, 7.86 8.16, 7.86 8.16 M7.86 8.16 C7.86 8.16, 7.86 8.16, 7.86 8.16 M0.26 41.3 C8.8 31.47, 17.34 21.65, 36.34 -0.21 M0.26 41.3 C12.39 27.34, 24.52 13.38, 36.34 -0.21 M0.52 65.38 C18.62 44.56, 36.72 23.73, 57.6 -0.28 M0.52 65.38 C12.93 51.11, 25.34 36.83, 57.6 -0.28 M0.13 90.22 C17.22 70.55, 34.32 50.89, 78.2 0.41 M0.13 90.22 C21.19 65.99, 42.24 41.77, 78.2 0.41 M0.4 114.3 C23.02 88.27, 45.64 62.25, 99.46 0.34 M0.4 114.3 C39.24 69.62, 78.07 24.94, 99.46 0.34 M0.01 139.13 C31.66 102.72, 63.31 66.31, 120.72 0.27 M0.01 139.13 C28.82 105.99, 57.63 72.85, 120.72 0.27 M0.27 163.22 C45.76 110.9, 91.24 58.58, 141.98 0.2 M0.27 163.22 C45.06 111.69, 89.85 60.17, 141.98 0.2 M0.54 187.3 C39.9 142.02, 79.26 96.74, 163.24 0.13 M0.54 187.3 C62.34 116.21, 124.14 45.12, 163.24 0.13 M0.15 212.13 C65.1 137.41, 130.06 62.69, 184.5 0.06 M0.15 212.13 C61.28 141.81, 122.41 71.5, 184.5 0.06 M0.42 236.22 C46.11 183.65, 91.81 131.08, 205.76 -0.01 M0.42 236.22 C44.73 185.24, 89.05 134.26, 205.76 -0.01 M0.03 261.05 C72.44 177.75, 144.86 94.44, 227.02 -0.08 M0.03 261.05 C71.92 178.35, 143.82 95.64, 227.02 -0.08 M0.29 285.13 C88.98 183.11, 177.66 81.09, 248.28 -0.15 M0.29 285.13 C88.38 183.81, 176.46 82.48, 248.28 -0.15 M-0.1 309.97 C96.05 199.36, 192.2 88.75, 269.54 -0.22 M-0.1 309.97 C103.86 190.38, 207.81 70.8, 269.54 -0.22 M0.17 334.05 C113.45 203.74, 226.73 73.43, 290.8 -0.28 M0.17 334.05 C114.24 202.83, 228.3 71.62, 290.8 -0.28 M0.44 358.13 C74.97 272.4, 149.49 186.66, 311.41 0.4 M0.44 358.13 C121.08 219.34, 241.73 80.55, 311.41 0.4 M0.05 382.97 C116.68 248.8, 233.3 114.64, 332.67 0.33 M0.05 382.97 C69.27 303.34, 138.49 223.71, 332.67 0.33 M0.31 407.05 C100.02 292.36, 199.72 177.66, 353.93 0.26 M0.31 407.05 C74.56 321.64, 148.8 236.24, 353.93 0.26 M-0.08 431.89 C97.85 319.23, 195.78 206.58, 375.19 0.19 M-0.08 431.89 C100.67 315.99, 201.42 200.1, 375.19 0.19 M0.19 455.97 C93.79 348.3, 187.38 240.63, 396.45 0.12 M0.19 455.97 C108.5 331.37, 216.82 206.77, 396.45 0.12 M0.46 480.05 C96.65 369.4, 192.84 258.74, 417.71 0.06 M0.46 480.05 C136.43 323.63, 272.41 167.21, 417.71 0.06 M0.07 504.89 C173.1 305.83, 346.14 106.78, 438.97 -0.01 M0.07 504.89 C103.61 385.78, 207.15 266.67, 438.97 -0.01 M0.33 528.97 C164.83 339.73, 329.33 150.5, 459.57 0.67 M0.33 528.97 C146.65 360.66, 292.96 192.34, 459.57 0.67 M-0.06 553.81 C136.24 397.01, 272.54 240.22, 474.93 7.4 M-0.06 553.81 C138.35 394.59, 276.75 235.38, 474.93 7.4 M0.21 577.89 C112.17 449.09, 224.14 320.29, 483.07 22.42 M0.21 577.89 C130.97 427.46, 261.74 277.03, 483.07 22.42 M0.48 601.97 C186.28 388.22, 372.09 174.48, 483.99 45.75 M0.48 601.97 C130.75 452.1, 261.03 302.24, 483.99 45.75 M0.09 626.81 C110.59 499.68, 221.1 372.56, 483.6 70.58 M0.09 626.81 C189.94 408.4, 379.8 189.99, 483.6 70.58 M0.35 650.89 C191.46 431.05, 382.56 211.21, 483.87 94.67 M0.35 650.89 C162.65 464.19, 324.94 277.49, 483.87 94.67 M-0.04 675.72 C103.69 556.39, 207.42 437.07, 484.13 118.75 M-0.04 675.72 C184.05 463.96, 368.14 252.19, 484.13 118.75 M0.23 699.81 C178.11 495.18, 355.99 290.55, 483.74 143.58 M0.23 699.81 C141.22 537.61, 282.21 375.42, 483.74 143.58 M0.49 723.89 C118.51 588.13, 236.52 452.37, 484.01 167.67 M0.49 723.89 C153.03 548.42, 305.56 372.95, 484.01 167.67 M0.11 748.72 C188.37 532.14, 376.64 315.56, 483.62 192.5 M0.11 748.72 C132.94 595.92, 265.77 443.11, 483.62 192.5 M0.37 772.81 C127.15 626.96, 253.93 481.12, 483.89 216.58 M0.37 772.81 C177.52 569.02, 354.67 365.24, 483.89 216.58 M-0.02 797.64 C138.4 638.41, 276.82 479.17, 484.15 240.67 M-0.02 797.64 C125.11 653.69, 250.24 509.75, 484.15 240.67 M0.25 821.72 C97.85 709.45, 195.45 597.17, 483.76 265.5 M0.25 821.72 C138.93 662.19, 277.61 502.66, 483.76 265.5 M0.51 845.81 C156.54 666.32, 312.56 486.83, 484.03 289.58 M0.51 845.81 C170.77 649.95, 341.03 454.09, 484.03 289.58 M0.12 870.64 C138.08 711.94, 276.04 553.24, 483.64 314.42 M0.12 870.64 C153.21 694.54, 306.3 518.43, 483.64 314.42 M0.39 894.72 C147.43 725.58, 294.46 556.43, 483.91 338.5 M0.39 894.72 C145.95 727.28, 291.5 559.84, 483.91 338.5 M0 919.56 C156.85 739.13, 313.7 558.69, 484.17 362.58 M0 919.56 C136.3 762.76, 272.61 605.96, 484.17 362.58 M1.58 942.13 C133.46 790.42, 265.34 638.71, 483.78 387.42 M1.58 942.13 C187.91 727.78, 374.24 513.43, 483.78 387.42 M9.06 957.91 C112.69 838.7, 216.31 719.5, 484.05 411.5 M9.06 957.91 C148.34 797.69, 287.62 637.47, 484.05 411.5 M24.42 964.64 C122.39 851.93, 220.36 739.23, 483.66 436.34 M24.42 964.64 C173.87 792.71, 323.32 620.79, 483.66 436.34 M45.68 964.57 C158.5 834.78, 271.32 704.99, 483.93 460.42 M45.68 964.57 C154.97 838.84, 264.25 713.12, 483.93 460.42 M66.28 965.25 C210.51 799.34, 354.74 633.42, 484.19 484.5 M66.28 965.25 C221.4 786.81, 376.51 608.37, 484.19 484.5 M87.54 965.18 C174.84 864.75, 262.14 764.33, 483.8 509.34 M87.54 965.18 C219.71 813.15, 351.87 661.11, 483.8 509.34 M108.8 965.11 C194.9 866.08, 280.99 767.04, 484.07 533.42 M108.8 965.11 C188.61 873.3, 268.42 781.5, 484.07 533.42 M130.06 965.05 C227.09 853.43, 324.12 741.81, 483.68 558.26 M130.06 965.05 C241.52 836.83, 352.98 708.61, 483.68 558.26 M151.32 964.98 C239.76 863.24, 328.19 761.51, 483.94 582.34 M151.32 964.98 C242.77 859.78, 334.21 754.59, 483.94 582.34 M172.58 964.91 C258.7 865.85, 344.81 766.78, 484.21 606.42 M172.58 964.91 C250.43 875.35, 328.28 785.8, 484.21 606.42 M193.84 964.84 C307.86 833.68, 421.87 702.53, 483.82 631.26 M193.84 964.84 C257.3 891.84, 320.75 818.85, 483.82 631.26 M215.1 964.77 C288.23 880.64, 361.36 796.52, 484.09 655.34 M215.1 964.77 C316.99 847.57, 418.87 730.36, 484.09 655.34 M236.36 964.7 C332.6 854, 428.83 743.29, 483.7 680.17 M236.36 964.7 C296.03 896.06, 355.69 827.43, 483.7 680.17 M257.62 964.63 C347.21 861.58, 436.79 758.52, 483.96 704.26 M257.62 964.63 C309.54 904.9, 361.46 845.18, 483.96 704.26 M278.23 965.32 C354.29 877.81, 430.36 790.31, 483.57 729.09 M278.23 965.32 C355.22 876.75, 432.21 788.18, 483.57 729.09 M299.49 965.25 C368.06 886.37, 436.63 807.49, 483.84 753.17 M299.49 965.25 C357.55 898.46, 415.6 831.67, 483.84 753.17 M320.75 965.18 C368.62 910.1, 416.5 855.03, 484.11 777.26 M320.75 965.18 C384.24 892.14, 447.73 819.1, 484.11 777.26 M342.01 965.11 C372.23 930.34, 402.45 895.58, 483.72 802.09 M342.01 965.11 C375.25 926.87, 408.49 888.63, 483.72 802.09 M363.27 965.04 C393.69 930.05, 424.1 895.06, 483.98 826.17 M363.27 965.04 C397.92 925.18, 432.57 885.31, 483.98 826.17 M384.53 964.97 C416.4 928.31, 448.27 891.65, 483.59 851.01 M384.53 964.97 C421.52 922.41, 458.52 879.85, 483.59 851.01 M405.79 964.9 C435.55 930.67, 465.3 896.44, 483.86 875.09 M405.79 964.9 C422.24 945.98, 438.7 927.05, 483.86 875.09 M427.05 964.83 C449.21 939.34, 471.38 913.84, 484.13 899.17 M427.05 964.83 C438.62 951.53, 450.18 938.22, 484.13 899.17 M448.31 964.77 C460.84 950.35, 473.37 935.94, 483.74 924.01 M448.31 964.77 C460.22 951.06, 472.14 937.36, 483.74 924.01" stroke="#b2f2bb" stroke-width="2" fill="none"></path><path d="M32 0 C175.51 0, 319.01 0, 451.74 0 M32 0 C160.08 0, 288.17 0, 451.74 0 M451.74 0 C473.07 0, 483.74 10.67, 483.74 32 M451.74 0 C473.07 0, 483.74 10.67, 483.74 32 M483.74 32 C483.74 348.1, 483.74 664.19, 483.74 932.85 M483.74 32 C483.74 293.26, 483.74 554.53, 483.74 932.85 M483.74 932.85 C483.74 954.19, 473.07 964.85, 451.74 964.85 M483.74 932.85 C483.74 954.19, 473.07 964.85, 451.74 964.85 M451.74 964.85 C326.85 964.85, 201.96 964.85, 32 964.85 M451.74 964.85 C296.18 964.85, 140.61 964.85, 32 964.85 M32 964.85 C10.67 964.85, 0 954.19, 0 932.85 M32 964.85 C10.67 964.85, 0 954.19, 0 932.85 M0 932.85 C0 646.9, 0 360.94, 0 32 M0 932.85 C0 715.19, 0 497.53, 0 32 M0 32 C0 10.67, 10.67 0, 32 0 M0 32 C0 10.67, 10.67 0, 32 0" stroke="#2f9e44" stroke-width="4" fill="none"></path></g><g stroke-linecap="round" transform="translate(131.13735884759717 715.1590097469398) rotate(0 122.0167064836503 77.44580429229154)"><path d="M0 0 C0 0, 0 0, 0 0 M0 0 C0 0, 0 0, 0 0 M0.27 24.08 C7.1 16.22, 13.94 8.35, 21.26 -0.07 M0.27 24.08 C5.55 18, 10.84 11.92, 21.26 -0.07 M-0.12 48.92 C11.27 35.81, 22.66 22.71, 42.52 -0.14 M-0.12 48.92 C14.96 31.57, 30.04 14.22, 42.52 -0.14 M0.14 73 C22.96 46.75, 45.78 20.51, 63.78 -0.21 M0.14 73 C20.54 49.54, 40.93 26.08, 63.78 -0.21 M-0.25 97.84 C18.68 76.06, 37.61 54.29, 85.04 -0.28 M-0.25 97.84 C22.51 71.65, 45.27 45.47, 85.04 -0.28 M0.02 121.92 C40.6 75.23, 81.19 28.54, 106.3 -0.34 M0.02 121.92 C25.62 92.47, 51.21 63.02, 106.3 -0.34 M0.29 146 C27.93 114.19, 55.58 82.39, 126.91 0.34 M0.29 146 C28.26 113.82, 56.23 81.64, 126.91 0.34 M13.67 154.99 C43.29 120.92, 72.91 86.84, 148.17 0.27 M13.67 154.99 C42.29 122.06, 70.91 89.14, 148.17 0.27 M34.93 154.92 C80.4 102.62, 125.86 50.32, 169.43 0.2 M34.93 154.92 C68.06 116.81, 101.19 78.7, 169.43 0.2 M56.19 154.85 C88.11 118.13, 120.03 81.41, 190.69 0.13 M56.19 154.85 C92.81 112.72, 129.43 70.6, 190.69 0.13 M77.45 154.78 C111.3 115.84, 145.15 76.9, 211.95 0.06 M77.45 154.78 C125.79 99.18, 174.13 43.57, 211.95 0.06 M98.06 155.47 C129.94 118.79, 161.83 82.11, 233.21 0 M98.06 155.47 C150.92 94.66, 203.78 33.85, 233.21 0 M119.32 155.4 C159.31 109.4, 199.3 63.39, 244.63 11.25 M119.32 155.4 C152.21 117.56, 185.1 79.72, 244.63 11.25 M140.58 155.33 C177.91 112.39, 215.23 69.45, 244.89 35.33 M140.58 155.33 C179.92 110.08, 219.25 64.82, 244.89 35.33 M161.84 155.26 C185.74 127.76, 209.65 100.26, 244.5 60.17 M161.84 155.26 C182 132.07, 202.16 108.88, 244.5 60.17 M183.1 155.19 C206.78 127.95, 230.46 100.71, 244.77 84.25 M183.1 155.19 C206.16 128.66, 229.23 102.13, 244.77 84.25 M204.36 155.12 C220.36 136.72, 236.36 118.31, 244.38 109.08 M204.36 155.12 C215.47 142.34, 226.59 129.55, 244.38 109.08 M225.62 155.05 C230.08 149.93, 234.53 144.8, 244.64 133.17 M225.62 155.05 C232.49 147.14, 239.37 139.23, 244.64 133.17 M0.29 155.14 C0.29 155.14, 0.29 155.14, 0.29 155.14 M0.29 155.14 C0.29 155.14, 0.29 155.14, 0.29 155.14 M24.37 154.88 C17.91 149.26, 11.44 143.64, 0.22 133.88 M24.37 154.88 C18.21 149.52, 12.06 144.17, 0.22 133.88 M48.45 154.61 C36.88 144.55, 25.31 134.49, 0.15 112.62 M48.45 154.61 C37.38 144.98, 26.3 135.36, 0.15 112.62 M73.29 155 C45.3 130.67, 17.31 106.34, 0.08 91.36 M73.29 155 C58.19 141.88, 43.1 128.76, 0.08 91.36 M97.37 154.73 C59.4 121.73, 21.44 88.73, 0.01 70.1 M97.37 154.73 C75.46 135.68, 53.54 116.64, 0.01 70.1 M122.21 155.12 C83.65 121.61, 45.1 88.09, -0.06 48.84 M122.21 155.12 C85.21 122.96, 48.22 90.8, -0.06 48.84 M146.29 154.86 C98.98 113.73, 51.67 72.6, -0.13 27.58 M146.29 154.86 C112.69 125.65, 79.09 96.44, -0.13 27.58 M170.37 154.59 C111.88 103.75, 53.39 52.9, -0.19 6.32 M170.37 154.59 C124.74 114.92, 79.1 75.25, -0.19 6.32 M195.21 154.98 C155.6 120.55, 115.99 86.12, 17.09 0.15 M195.21 154.98 C133.51 101.35, 71.81 47.71, 17.09 0.15 M219.29 154.71 C151.55 95.83, 83.81 36.94, 41.18 -0.12 M219.29 154.71 C155.09 98.91, 90.89 43.1, 41.18 -0.12 M244.12 155.1 C179.74 99.14, 115.36 43.17, 65.26 -0.38 M244.12 155.1 C178.72 98.25, 113.32 41.4, 65.26 -0.38 M244.81 134.5 C201.2 96.59, 157.59 58.68, 90.09 0.01 M244.81 134.5 C202.03 97.31, 159.25 60.12, 90.09 0.01 M244.74 113.24 C192.88 68.15, 141.01 23.07, 114.18 -0.26 M244.74 113.24 C210.41 83.39, 176.08 53.55, 114.18 -0.26 M244.67 91.98 C208.65 60.67, 172.63 29.35, 139.01 0.13 M244.67 91.98 C218.57 69.29, 192.47 46.6, 139.01 0.13 M244.6 70.72 C221.4 50.55, 198.21 30.39, 163.09 -0.14 M244.6 70.72 C220.15 49.46, 195.69 28.2, 163.09 -0.14 M244.53 49.46 C222.17 30.02, 199.8 10.57, 187.18 -0.4 M244.53 49.46 C225.08 32.55, 205.63 15.64, 187.18 -0.4 M244.47 28.2 C232.73 18, 221 7.8, 212.01 -0.01 M244.47 28.2 C233.93 19.04, 223.4 9.89, 212.01 -0.01 M244.4 6.94 C241.9 4.77, 239.41 2.6, 236.09 -0.28 M244.4 6.94 C241.44 4.37, 238.49 1.8, 236.09 -0.28" stroke="#a5d8ff" stroke-width="2" fill="none"></path><path d="M0 0 C90.66 0, 181.31 0, 244.03 0 M0 0 C59.52 0, 119.05 0, 244.03 0 M244.03 0 C244.03 35.28, 244.03 70.57, 244.03 154.89 M244.03 0 C244.03 38.56, 244.03 77.13, 244.03 154.89 M244.03 154.89 C170.6 154.89, 97.17 154.89, 0 154.89 M244.03 154.89 C181.12 154.89, 118.22 154.89, 0 154.89 M0 154.89 C0 108.8, 0 62.72, 0 0 M0 154.89 C0 97.49, 0 40.08, 0 0" stroke="#000000" stroke-width="4" fill="none"></path></g><g transform="translate(168.1110965812477 751.2048140392317) rotate(0 85.04296875 41.40000000000009)"><text x="85.04296875" y="0" font-family="Helvetica, Segoe UI Emoji" font-size="36px" fill="#000000" text-anchor="middle" style="white-space: pre;" direction="ltr" dominant-baseline="text-before-edge">Host Node</text><text x="85.04296875" y="41.4" font-family="Helvetica, Segoe UI Emoji" font-size="36px" fill="#000000" text-anchor="middle" style="white-space: pre;" direction="ltr" dominant-baseline="text-before-edge">1</text></g><g stroke-linecap="round" transform="translate(1362.0749592687835 12.737152768651868) rotate(0 122 120.5)"><path d="M244 120.5 C244 124, 243.84 127.51, 243.54 131 C243.23 134.49, 242.76 137.98, 242.15 141.42 C241.53 144.87, 240.76 148.31, 239.84 151.69 C238.93 155.07, 237.85 158.42, 236.64 161.71 C235.43 165, 234.07 168.25, 232.57 171.43 C231.07 174.6, 229.43 177.72, 227.66 180.75 C225.88 183.78, 223.97 186.75, 221.94 189.62 C219.9 192.48, 217.74 195.27, 215.46 197.96 C213.18 200.64, 210.77 203.23, 208.27 205.71 C205.76 208.18, 203.14 210.56, 200.42 212.81 C197.7 215.06, 194.88 217.2, 191.98 219.21 C189.07 221.22, 186.07 223.11, 183 224.86 C179.93 226.61, 176.77 228.23, 173.56 229.71 C170.35 231.19, 167.06 232.54, 163.73 233.73 C160.4 234.93, 157 235.99, 153.58 236.89 C150.15 237.8, 146.68 238.56, 143.19 239.17 C139.69 239.78, 136.16 240.24, 132.63 240.54 C129.1 240.85, 125.54 241, 122 241 C118.46 241, 114.9 240.85, 111.37 240.54 C107.84 240.24, 104.31 239.78, 100.81 239.17 C97.32 238.56, 93.85 237.8, 90.42 236.89 C87 235.99, 83.6 234.93, 80.27 233.73 C76.94 232.54, 73.65 231.19, 70.44 229.71 C67.23 228.23, 64.07 226.61, 61 224.86 C57.93 223.11, 54.93 221.22, 52.02 219.21 C49.12 217.2, 46.3 215.06, 43.58 212.81 C40.86 210.56, 38.24 208.18, 35.73 205.71 C33.23 203.23, 30.82 200.64, 28.54 197.96 C26.26 195.27, 24.1 192.48, 22.06 189.62 C20.03 186.75, 18.12 183.78, 16.34 180.75 C14.57 177.72, 12.93 174.6, 11.43 171.43 C9.93 168.25, 8.57 165, 7.36 161.71 C6.15 158.42, 5.07 155.07, 4.16 151.69 C3.24 148.31, 2.47 144.87, 1.85 141.42 C1.24 137.98, 0.77 134.49, 0.46 131 C0.16 127.51, 0 124, 0 120.5 C0 117, 0.16 113.49, 0.46 110 C0.77 106.51, 1.24 103.02, 1.85 99.58 C2.47 96.13, 3.24 92.69, 4.16 89.31 C5.07 85.93, 6.15 82.58, 7.36 79.29 C8.57 76, 9.93 72.75, 11.43 69.57 C12.93 66.4, 14.57 63.28, 16.34 60.25 C18.12 57.22, 20.03 54.25, 22.06 51.38 C24.1 48.52, 26.26 45.73, 28.54 43.04 C30.82 40.36, 33.23 37.77, 35.73 35.29 C38.24 32.82, 40.86 30.44, 43.58 28.19 C46.3 25.94, 49.12 23.8, 52.02 21.79 C54.93 19.78, 57.93 17.89, 61 16.14 C64.07 14.39, 67.23 12.77, 70.44 11.29 C73.65 9.81, 76.94 8.46, 80.27 7.27 C83.6 6.07, 87 5.01, 90.42 4.11 C93.85 3.2, 97.32 2.44, 100.81 1.83 C104.31 1.22, 107.84 0.76, 111.37 0.46 C114.9 0.15, 118.46 0, 122 0 C125.54 0, 129.1 0.15, 132.63 0.46 C136.16 0.76, 139.69 1.22, 143.19 1.83 C146.68 2.44, 150.15 3.2, 153.58 4.11 C157 5.01, 160.4 6.07, 163.73 7.27 C167.06 8.46, 170.35 9.81, 173.56 11.29 C176.77 12.77, 179.93 14.39, 183 16.14 C186.07 17.89, 189.07 19.78, 191.98 21.79 C194.88 23.8, 197.7 25.94, 200.42 28.19 C203.14 30.44, 205.76 32.82, 208.27 35.29 C210.77 37.77, 213.18 40.36, 215.46 43.04 C217.74 45.73, 219.9 48.52, 221.94 51.38 C223.97 54.25, 225.88 57.22, 227.66 60.25 C229.43 63.28, 231.07 66.4, 232.57 69.57 C234.07 72.75, 235.43 76, 236.64 79.29 C237.85 82.58, 238.93 85.93, 239.84 89.31 C240.76 92.69, 241.53 96.13, 242.15 99.58 C242.76 103.02, 243.23 106.51, 243.54 110 C243.84 113.49, 243.92 118.75, 244 120.5 C244.08 122.25, 244.08 118.75, 244 120.5" stroke="#000000" stroke-width="4" fill="none"></path></g><g transform="translate(1432.3030491515246 91.63078563567342) rotate(0 52.0048828125 41.40000000000009)"><text x="52.0048828125" y="0" font-family="Helvetica, Segoe UI Emoji" font-size="36px" fill="#000000" text-anchor="middle" style="white-space: pre;" direction="ltr" dominant-baseline="text-before-edge">Users/</text><text x="52.0048828125" y="41.4" font-family="Helvetica, Segoe UI Emoji" font-size="36px" fill="#000000" text-anchor="middle" style="white-space: pre;" direction="ltr" dominant-baseline="text-before-edge">dApps</text></g><g transform="translate(162.54594999559822 78.13298275720808) rotate(0 92.0654296875 41.40000000000009)"><text x="92.0654296875" y="0" font-family="Helvetica, Segoe UI Emoji" font-size="36px" fill="#1971c2" text-anchor="middle" style="white-space: pre;" direction="ltr" dominant-baseline="text-before-edge">Skypier </text><text x="92.0654296875" y="41.4" font-family="Helvetica, Segoe UI Emoji" font-size="36px" fill="#1971c2" text-anchor="middle" style="white-space: pre;" direction="ltr" dominant-baseline="text-before-edge">Node Index</text></g><g mask="url(#mask-bmG0thVXlQb61voKCHqVQ)" stroke-linecap="round"><g transform="translate(1346.2138039912115 140.31447379008023) rotate(0 -419.0235063723494 -29.750782834207257)"><path d="M0 0 C-60.52 -7.56, -223.45 -35.45, -363.13 -45.37 C-502.8 -55.28, -758.89 -57.15, -838.05 -59.5 M0 0 C-60.52 -7.56, -223.45 -35.45, -363.13 -45.37 C-502.8 -55.28, -758.89 -57.15, -838.05 -59.5" stroke="#f08c00" stroke-width="4" fill="none"></path></g><g transform="translate(1346.2138039912115 140.31447379008023) rotate(0 -419.0235063723494 -29.750782834207257)"><path d="M-814.39 -67.58 C-822.53 -64.8, -830.67 -62.02, -838.05 -59.5 M-814.39 -67.58 C-823.47 -64.48, -832.56 -61.38, -838.05 -59.5" stroke="#f08c00" stroke-width="4" fill="none"></path></g><g transform="translate(1346.2138039912115 140.31447379008023) rotate(0 -419.0235063723494 -29.750782834207257)"><path d="M-814.73 -50.48 C-822.75 -53.59, -830.77 -56.69, -838.05 -59.5 M-814.73 -50.48 C-823.68 -53.95, -832.64 -57.41, -838.05 -59.5" stroke="#f08c00" stroke-width="4" fill="none"></path></g></g><mask id="mask-bmG0thVXlQb61voKCHqVQ"><rect x="0" y="0" fill="#fff" width="2284.2608167359103" height="299.8160394584943"></rect><rect x="884.0348897670938" y="74.2493884888745" fill="#000" width="198.10546875" height="41.4" opacity="1"></rect></mask><g transform="translate(884.0348897670938 74.2493884888745) rotate(0 43.15540785176836 36.31430246699847)"><text x="99.052734375" y="0" font-family="Helvetica, Segoe UI Emoji" font-size="36px" fill="#1e1e1e" text-anchor="middle" style="white-space: pre;" direction="ltr" dominant-baseline="text-before-edge">Subscription</text></g><g stroke-linecap="round" transform="translate(1350.2296368015614 599.171693406055) rotate(0 122 120.5)"><path d="M244 120.5 C244 124, 243.84 127.51, 243.54 131 C243.23 134.49, 242.76 137.98, 242.15 141.42 C241.53 144.87, 240.76 148.31, 239.84 151.69 C238.93 155.07, 237.85 158.42, 236.64 161.71 C235.43 165, 234.07 168.25, 232.57 171.43 C231.07 174.6, 229.43 177.72, 227.66 180.75 C225.88 183.78, 223.97 186.75, 221.94 189.62 C219.9 192.48, 217.74 195.27, 215.46 197.96 C213.18 200.64, 210.77 203.23, 208.27 205.71 C205.76 208.18, 203.14 210.56, 200.42 212.81 C197.7 215.06, 194.88 217.2, 191.98 219.21 C189.07 221.22, 186.07 223.11, 183 224.86 C179.93 226.61, 176.77 228.23, 173.56 229.71 C170.35 231.19, 167.06 232.54, 163.73 233.73 C160.4 234.93, 157 235.99, 153.58 236.89 C150.15 237.8, 146.68 238.56, 143.19 239.17 C139.69 239.78, 136.16 240.24, 132.63 240.54 C129.1 240.85, 125.54 241, 122 241 C118.46 241, 114.9 240.85, 111.37 240.54 C107.84 240.24, 104.31 239.78, 100.81 239.17 C97.32 238.56, 93.85 237.8, 90.42 236.89 C87 235.99, 83.6 234.93, 80.27 233.73 C76.94 232.54, 73.65 231.19, 70.44 229.71 C67.23 228.23, 64.07 226.61, 61 224.86 C57.93 223.11, 54.93 221.22, 52.02 219.21 C49.12 217.2, 46.3 215.06, 43.58 212.81 C40.86 210.56, 38.24 208.18, 35.73 205.71 C33.23 203.23, 30.82 200.64, 28.54 197.96 C26.26 195.27, 24.1 192.48, 22.06 189.62 C20.03 186.75, 18.12 183.78, 16.34 180.75 C14.57 177.72, 12.93 174.6, 11.43 171.43 C9.93 168.25, 8.57 165, 7.36 161.71 C6.15 158.42, 5.07 155.07, 4.16 151.69 C3.24 148.31, 2.47 144.87, 1.85 141.42 C1.24 137.98, 0.77 134.49, 0.46 131 C0.16 127.51, 0 124, 0 120.5 C0 117, 0.16 113.49, 0.46 110 C0.77 106.51, 1.24 103.02, 1.85 99.58 C2.47 96.13, 3.24 92.69, 4.16 89.31 C5.07 85.93, 6.15 82.58, 7.36 79.29 C8.57 76, 9.93 72.75, 11.43 69.57 C12.93 66.4, 14.57 63.28, 16.34 60.25 C18.12 57.22, 20.03 54.25, 22.06 51.38 C24.1 48.52, 26.26 45.73, 28.54 43.04 C30.82 40.36, 33.23 37.77, 35.73 35.29 C38.24 32.82, 40.86 30.44, 43.58 28.19 C46.3 25.94, 49.12 23.8, 52.02 21.79 C54.93 19.78, 57.93 17.89, 61 16.14 C64.07 14.39, 67.23 12.77, 70.44 11.29 C73.65 9.81, 76.94 8.46, 80.27 7.27 C83.6 6.07, 87 5.01, 90.42 4.11 C93.85 3.2, 97.32 2.44, 100.81 1.83 C104.31 1.22, 107.84 0.76, 111.37 0.46 C114.9 0.15, 118.46 0, 122 0 C125.54 0, 129.1 0.15, 132.63 0.46 C136.16 0.76, 139.69 1.22, 143.19 1.83 C146.68 2.44, 150.15 3.2, 153.58 4.11 C157 5.01, 160.4 6.07, 163.73 7.27 C167.06 8.46, 170.35 9.81, 173.56 11.29 C176.77 12.77, 179.93 14.39, 183 16.14 C186.07 17.89, 189.07 19.78, 191.98 21.79 C194.88 23.8, 197.7 25.94, 200.42 28.19 C203.14 30.44, 205.76 32.82, 208.27 35.29 C210.77 37.77, 213.18 40.36, 215.46 43.04 C217.74 45.73, 219.9 48.52, 221.94 51.38 C223.97 54.25, 225.88 57.22, 227.66 60.25 C229.43 63.28, 231.07 66.4, 232.57 69.57 C234.07 72.75, 235.43 76, 236.64 79.29 C237.85 82.58, 238.93 85.93, 239.84 89.31 C240.76 92.69, 241.53 96.13, 242.15 99.58 C242.76 103.02, 243.23 106.51, 243.54 110 C243.84 113.49, 243.92 118.75, 244 120.5 C244.08 122.25, 244.08 118.75, 244 120.5" stroke="#000000" stroke-width="4" fill="none"></path></g><g transform="translate(1426.4518673093025 698.7653262730764) rotate(0 46.0107421875 20.699999999999818)"><text x="46.0107421875" y="0" font-family="Helvetica, Segoe UI Emoji" font-size="36px" fill="#000000" text-anchor="middle" style="white-space: pre;" direction="ltr" dominant-baseline="text-before-edge">Hosts</text></g><g mask="url(#mask-nGltsTmim_lNN78uuPJLP)" stroke-linecap="round"><g transform="translate(1341.6746635409136 767.4961830812099) rotate(0 -408.9955376476819 33.79775904087501)"><path d="M0 0 C-64.43 11.27, -250.22 58.12, -386.55 67.6 C-522.89 77.07, -746.08 58.65, -817.99 56.87 M0 0 C-64.43 11.27, -250.22 58.12, -386.55 67.6 C-522.89 77.07, -746.08 58.65, -817.99 56.87" stroke="#f08c00" stroke-width="4" fill="none"></path></g><g transform="translate(1341.6746635409136 767.4961830812099) rotate(0 -408.9955376476819 33.79775904087501)"><path d="M-794.11 49.49 C-802.64 52.12, -811.17 54.76, -817.99 56.87 M-794.11 49.49 C-803.45 52.37, -812.79 55.26, -817.99 56.87" stroke="#f08c00" stroke-width="4" fill="none"></path></g><g transform="translate(1341.6746635409136 767.4961830812099) rotate(0 -408.9955376476819 33.79775904087501)"><path d="M-794.95 66.57 C-803.18 63.1, -811.41 59.63, -817.99 56.87 M-794.95 66.57 C-803.96 62.77, -812.97 58.98, -817.99 56.87" stroke="#f08c00" stroke-width="4" fill="none"></path></g></g><mask id="mask-nGltsTmim_lNN78uuPJLP"><rect x="0" y="0" fill="#fff" width="2259.6657388362773" height="935.0917011629599"></rect><rect x="770.0138003179145" y="814.3917011629601" fill="#000" width="370.212890625" height="41.4" opacity="1"></rect></mask><g transform="translate(770.0138003179145 814.3917011629601) rotate(0 162.66532557531718 -11.74991993923959)"><text x="185.1064453125" y="0" font-family="Helvetica, Segoe UI Emoji" font-size="36px" fill="#1e1e1e" text-anchor="middle" style="white-space: pre;" direction="ltr" dominant-baseline="text-before-edge">Sign up &amp; grant access</text></g><g mask="url(#mask-oCmBQ2nlpvYvi31f9WOJB)" stroke-linecap="round"><g transform="translate(1353.8923220546621 192.4594970173075) rotate(0 -156.2396808732226 63.47368064223656)"><path d="M0 0 C-29.77 6.32, -126.51 16.78, -178.59 37.93 C-230.67 59.09, -290.16 112.11, -312.48 126.95 M0 0 C-29.77 6.32, -126.51 16.78, -178.59 37.93 C-230.67 59.09, -290.16 112.11, -312.48 126.95" stroke="#2f9e44" stroke-width="4" fill="none"></path></g><g transform="translate(1353.8923220546621 192.4594970173075) rotate(0 -156.2396808732226 63.47368064223656)"><path d="M-298.85 105.99 C-304.23 114.25, -309.6 122.51, -312.48 126.95 M-298.85 105.99 C-302.2 111.14, -305.55 116.29, -312.48 126.95" stroke="#2f9e44" stroke-width="4" fill="none"></path></g><g transform="translate(1353.8923220546621 192.4594970173075) rotate(0 -156.2396808732226 63.47368064223656)"><path d="M-288.57 119.65 C-297.99 122.53, -307.42 125.4, -312.48 126.95 M-288.57 119.65 C-294.45 121.44, -300.33 123.24, -312.48 126.95" stroke="#2f9e44" stroke-width="4" fill="none"></path></g></g><mask id="mask-oCmBQ2nlpvYvi31f9WOJB"><rect x="0" y="0" fill="#fff" width="1766.3716838011073" height="419.40685830178063"></rect><rect x="1034.254957771007" y="188.99347616264822" fill="#000" width="282.09375" height="82.8" opacity="1"></rect></mask><g transform="translate(1034.254957771007 188.99347616264822) rotate(0 163.3976834104326 66.93970149689585)"><text x="141.046875" y="0" font-family="Helvetica, Segoe UI Emoji" font-size="36px" fill="#2f9e44" text-anchor="middle" style="white-space: pre;" direction="ltr" dominant-baseline="text-before-edge">Sign up </text><text x="141.046875" y="41.4" font-family="Helvetica, Segoe UI Emoji" font-size="36px" fill="#2f9e44" text-anchor="middle" style="white-space: pre;" direction="ltr" dominant-baseline="text-before-edge">(membership fee)</text></g><g stroke-linecap="round" transform="translate(807.1717094124206 333.51365045448074) rotate(0 122.0167064836503 77.44580429229154)"><path d="M0 0 C0 0, 0 0, 0 0 M0 0 C0 0, 0 0, 0 0 M0.27 24.08 C5.87 17.63, 11.48 11.18, 21.26 -0.07 M0.27 24.08 C7.69 15.54, 15.12 7, 21.26 -0.07 M-0.12 48.92 C15.17 31.33, 30.46 13.74, 42.52 -0.14 M-0.12 48.92 C13.54 33.2, 27.21 17.47, 42.52 -0.14 M0.14 73 C14.27 56.75, 28.39 40.5, 63.78 -0.21 M0.14 73 C17.13 53.46, 34.11 33.93, 63.78 -0.21 M-0.25 97.84 C32.32 60.37, 64.89 22.91, 85.04 -0.28 M-0.25 97.84 C20.29 74.21, 40.84 50.58, 85.04 -0.28 M0.02 121.92 C23.23 95.22, 46.43 68.52, 106.3 -0.34 M0.02 121.92 C23.5 94.91, 46.98 67.9, 106.3 -0.34 M0.29 146 C28.17 113.92, 56.05 81.85, 126.91 0.34 M0.29 146 C27.23 115, 54.18 84.01, 126.91 0.34 M13.67 154.99 C59.14 102.69, 104.6 50.39, 148.17 0.27 M13.67 154.99 C46.8 116.88, 79.93 78.77, 148.17 0.27 M34.93 154.92 C66.85 118.2, 98.77 81.48, 169.43 0.2 M34.93 154.92 C71.55 112.79, 108.17 70.67, 169.43 0.2 M56.19 154.85 C90.04 115.91, 123.89 76.97, 190.69 0.13 M56.19 154.85 C104.53 99.24, 152.87 43.64, 190.69 0.13 M77.45 154.78 C109.18 118.28, 140.91 81.78, 211.95 0.06 M77.45 154.78 C130.06 94.27, 182.66 33.76, 211.95 0.06 M98.06 155.47 C141.19 105.85, 184.32 56.24, 233.21 0 M98.06 155.47 C133.53 114.65, 169.01 73.84, 233.21 0 M119.32 155.4 C164.16 103.81, 209 52.23, 244.63 11.25 M119.32 155.4 C166.57 101.04, 213.83 46.68, 244.63 11.25 M140.58 155.33 C170.74 120.63, 200.91 85.92, 244.89 35.33 M140.58 155.33 C166.02 126.06, 191.46 96.8, 244.89 35.33 M161.84 155.26 C193.58 118.75, 225.32 82.23, 244.5 60.17 M161.84 155.26 C192.75 119.7, 223.67 84.13, 244.5 60.17 M183.1 155.19 C207.75 126.83, 232.41 98.47, 244.77 84.25 M183.1 155.19 C200.23 135.49, 217.35 115.79, 244.77 84.25 M204.36 155.12 C213.73 144.34, 223.11 133.55, 244.38 109.08 M204.36 155.12 C218.82 138.48, 233.28 121.85, 244.38 109.08 M225.62 155.05 C230.91 148.97, 236.19 142.89, 244.64 133.17 M225.62 155.05 C231.79 147.96, 237.95 140.86, 244.64 133.17 M0.29 155.14 C0.29 155.14, 0.29 155.14, 0.29 155.14 M0.29 155.14 C0.29 155.14, 0.29 155.14, 0.29 155.14 M24.37 154.88 C18.58 149.85, 12.8 144.82, 0.22 133.88 M24.37 154.88 C18.83 150.06, 13.3 145.25, 0.22 133.88 M48.45 154.61 C29.98 138.56, 11.52 122.5, 0.15 112.62 M48.45 154.61 C38.49 145.95, 28.53 137.29, 0.15 112.62 M73.29 155 C44.74 130.18, 16.19 105.37, 0.08 91.36 M73.29 155 C56.81 140.68, 40.33 126.35, 0.08 91.36 M97.37 154.73 C66.67 128.05, 35.97 101.36, 0.01 70.1 M97.37 154.73 C67.91 129.12, 38.45 103.52, 0.01 70.1 M122.21 155.12 C82.7 120.78, 43.19 86.44, -0.06 48.84 M122.21 155.12 C94.15 130.73, 66.09 106.34, -0.06 48.84 M146.29 154.86 C96.08 111.21, 45.87 67.57, -0.13 27.58 M146.29 154.86 C107.12 120.8, 67.94 86.75, -0.13 27.58 M170.37 154.59 C132.44 121.62, 94.51 88.65, -0.19 6.32 M170.37 154.59 C111.29 103.23, 52.2 51.87, -0.19 6.32 M195.21 154.98 C127.47 96.1, 59.73 37.21, 17.09 0.15 M195.21 154.98 C131.01 99.17, 66.81 43.37, 17.09 0.15 M219.29 154.71 C155.18 98.98, 91.07 43.25, 41.18 -0.12 M219.29 154.71 C154.16 98.1, 89.04 41.49, 41.18 -0.12 M244.12 155.1 C193.71 111.28, 143.29 67.45, 65.26 -0.38 M244.12 155.1 C194.66 112.11, 145.2 69.11, 65.26 -0.38 M244.81 134.5 C183.35 81.08, 121.9 27.65, 90.09 0.01 M244.81 134.5 C204.13 99.13, 163.44 63.77, 90.09 0.01 M244.74 113.24 C200.23 74.55, 155.72 35.85, 114.18 -0.26 M244.74 113.24 C212.49 85.2, 180.23 57.16, 114.18 -0.26 M244.67 91.98 C214.6 65.84, 184.53 39.7, 139.01 0.13 M244.67 91.98 C212.97 64.42, 181.27 36.86, 139.01 0.13 M244.6 70.72 C212.82 43.09, 181.04 15.46, 163.09 -0.14 M244.6 70.72 C216.96 46.69, 189.31 22.66, 163.09 -0.14 M244.53 49.46 C223.79 31.43, 203.05 13.4, 187.18 -0.4 M244.53 49.46 C225.92 33.28, 207.3 17.1, 187.18 -0.4 M244.47 28.2 C234.71 19.72, 224.96 11.25, 212.01 -0.01 M244.47 28.2 C232.91 18.16, 221.36 8.11, 212.01 -0.01 M244.4 6.94 C242.26 5.09, 240.13 3.23, 236.09 -0.28 M244.4 6.94 C242.15 4.99, 239.91 3.04, 236.09 -0.28" stroke="#b2f2bb" stroke-width="2" fill="none"></path><path d="M0 0 C55.59 0, 111.18 0, 244.03 0 M0 0 C60.76 0, 121.51 0, 244.03 0 M244.03 0 C244.03 46.61, 244.03 93.21, 244.03 154.89 M244.03 0 C244.03 39.93, 244.03 79.86, 244.03 154.89 M244.03 154.89 C171.42 154.89, 98.81 154.89, 0 154.89 M244.03 154.89 C153.59 154.89, 63.15 154.89, 0 154.89 M0 154.89 C0 98.93, 0 42.97, 0 0 M0 154.89 C0 102.72, 0 50.55, 0 0" stroke="#000000" stroke-width="4" fill="none"></path></g><g transform="translate(869.1679080835711 390.25945474677246) rotate(0 60.0205078125 20.699999999999818)"><text x="60.0205078125" y="0" font-family="Helvetica, Segoe UI Emoji" font-size="36px" fill="#000000" text-anchor="middle" style="white-space: pre;" direction="ltr" dominant-baseline="text-before-edge">Skypier</text></g><g mask="url(#mask-yQYQVXWQKlB3gvN7eyftC)" stroke-linecap="round"><g transform="translate(979.2958848721446 510.5826617871571) rotate(0 184.64043601912135 69.33428036414534)"><path d="M0 0 C25.11 14.88, 89.13 66.16, 150.67 89.27 C212.22 112.38, 332.85 130.44, 369.28 138.67 M0 0 C25.11 14.88, 89.13 66.16, 150.67 89.27 C212.22 112.38, 332.85 130.44, 369.28 138.67" stroke="#2f9e44" stroke-width="4" fill="none"></path></g><g transform="translate(979.2958848721446 510.5826617871571) rotate(0 184.64043601912135 69.33428036414534)"><path d="M344.6 142.63 C350.47 141.69, 356.34 140.74, 369.28 138.67 M344.6 142.63 C351.29 141.56, 357.97 140.48, 369.28 138.67" stroke="#2f9e44" stroke-width="4" fill="none"></path></g><g transform="translate(979.2958848721446 510.5826617871571) rotate(0 184.64043601912135 69.33428036414534)"><path d="M347.83 125.84 C352.93 128.89, 358.04 131.94, 369.28 138.67 M347.83 125.84 C353.64 129.31, 359.45 132.79, 369.28 138.67" stroke="#2f9e44" stroke-width="4" fill="none"></path></g></g><mask id="mask-yQYQVXWQKlB3gvN7eyftC"><rect x="0" y="0" fill="#fff" width="1448.576756910387" height="749.2512225154478"></rect><rect x="957.8807252172583" y="558.4539435420493" fill="#000" width="344.1796875" height="82.8" opacity="1"></rect></mask><g transform="translate(957.8807252172583 558.4539435420493) rotate(0 206.0555956740077 21.46299860925319)"><text x="172.08984375" y="0" font-family="Helvetica, Segoe UI Emoji" font-size="36px" fill="#2f9e44" text-anchor="middle" style="white-space: pre;" direction="ltr" dominant-baseline="text-before-edge">Get Paid in preferred </text><text x="172.08984375" y="41.4" font-family="Helvetica, Segoe UI Emoji" font-size="36px" fill="#2f9e44" text-anchor="middle" style="white-space: pre;" direction="ltr" dominant-baseline="text-before-edge">Currency ($)</text></g><g mask="url(#mask-ofGag3zcEoMB6s3qrQenH)" stroke-linecap="round"><g transform="translate(794.8638887742045 444.4135236001157) rotate(0 -140.7910919189453 -0.5079267096998592)"><path d="M0 0 C-46.93 -0.17, -234.65 -0.85, -281.58 -1.02 M0 0 C-46.93 -0.17, -234.65 -0.85, -281.58 -1.02" stroke="#2f9e44" stroke-width="4" fill="none"></path></g><g transform="translate(794.8638887742045 444.4135236001157) rotate(0 -140.7910919189453 -0.5079267096998592)"><path d="M-258.06 -9.48 C-265.79 -6.7, -273.53 -3.91, -281.58 -1.02 M-258.06 -9.48 C-266.15 -6.57, -274.24 -3.66, -281.58 -1.02" stroke="#2f9e44" stroke-width="4" fill="none"></path></g><g transform="translate(794.8638887742045 444.4135236001157) rotate(0 -140.7910919189453 -0.5079267096998592)"><path d="M-258.12 7.62 C-265.84 4.78, -273.55 1.94, -281.58 -1.02 M-258.12 7.62 C-266.19 4.65, -274.26 1.68, -281.58 -1.02" stroke="#2f9e44" stroke-width="4" fill="none"></path></g></g><mask id="mask-ofGag3zcEoMB6s3qrQenH"><rect x="0" y="0" fill="#fff" width="1176.446072612095" height="545.4293770195154"></rect><rect x="589.0513124802592" y="402.5055968904162" fill="#000" width="130.04296875" height="82.8" opacity="1"></rect></mask><g transform="translate(589.0513124802592 402.5055968904162) rotate(0 65.021484375 41.399999999999636)"><text x="65.021484375" y="0" font-family="Helvetica, Segoe UI Emoji" font-size="36px" fill="#2f9e44" text-anchor="middle" style="white-space: pre;" direction="ltr" dominant-baseline="text-before-edge">Service </text><text x="65.021484375" y="41.4" font-family="Helvetica, Segoe UI Emoji" font-size="36px" fill="#2f9e44" text-anchor="middle" style="white-space: pre;" direction="ltr" dominant-baseline="text-before-edge">fee</text></g><g stroke-linecap="round" transform="translate(132.3531637313272 476.0153462660928) rotate(0 122.0167064836503 77.44580429229154)"><path d="M0 0 C0 0, 0 0, 0 0 M0 0 C0 0, 0 0, 0 0 M0.27 24.08 C5.94 17.55, 11.62 11.02, 21.26 -0.07 M0.27 24.08 C4.87 18.79, 9.47 13.49, 21.26 -0.07 M-0.12 48.92 C13.58 33.15, 27.28 17.39, 42.52 -0.14 M-0.12 48.92 C15 31.52, 30.13 14.12, 42.52 -0.14 M0.14 73 C18.23 52.19, 36.33 31.37, 63.78 -0.21 M0.14 73 C21.66 48.25, 43.17 23.5, 63.78 -0.21 M-0.25 97.84 C29.27 63.89, 58.78 29.94, 85.04 -0.28 M-0.25 97.84 C28.31 64.99, 56.86 32.14, 85.04 -0.28 M0.02 121.92 C33.44 83.47, 66.86 45.03, 106.3 -0.34 M0.02 121.92 C23.96 94.38, 47.9 66.84, 106.3 -0.34 M0.29 146 C47.36 91.85, 94.43 37.7, 126.91 0.34 M0.29 146 C25.78 116.67, 51.28 87.34, 126.91 0.34 M13.67 154.99 C57.74 104.29, 101.81 53.59, 148.17 0.27 M13.67 154.99 C49.12 114.21, 84.57 73.43, 148.17 0.27 M34.93 154.92 C85.02 97.3, 135.1 39.68, 169.43 0.2 M34.93 154.92 C64.21 121.24, 93.49 87.55, 169.43 0.2 M56.19 154.85 C100.56 103.81, 144.93 52.77, 190.69 0.13 M56.19 154.85 C106.19 97.33, 156.2 39.81, 190.69 0.13 M77.45 154.78 C105.81 122.16, 134.17 89.54, 211.95 0.06 M77.45 154.78 C122.24 103.26, 167.02 51.74, 211.95 0.06 M98.06 155.47 C134.01 114.11, 169.96 72.76, 233.21 0 M98.06 155.47 C139.21 108.13, 180.36 60.79, 233.21 0 M119.32 155.4 C161.81 106.52, 204.3 57.64, 244.63 11.25 M119.32 155.4 C154.7 114.7, 190.08 73.99, 244.63 11.25 M140.58 155.33 C173.96 116.92, 207.35 78.52, 244.89 35.33 M140.58 155.33 C177.33 113.05, 214.09 70.77, 244.89 35.33 M161.84 155.26 C186.48 126.91, 211.13 98.56, 244.5 60.17 M161.84 155.26 C185.55 127.98, 209.27 100.7, 244.5 60.17 M183.1 155.19 C196.36 139.93, 209.63 124.67, 244.77 84.25 M183.1 155.19 C198.01 138.03, 212.93 120.87, 244.77 84.25 M204.36 155.12 C213.09 145.08, 221.82 135.04, 244.38 109.08 M204.36 155.12 C218.51 138.84, 232.66 122.57, 244.38 109.08 M225.62 155.05 C231.58 148.2, 237.54 141.34, 244.64 133.17 M225.62 155.05 C230.1 149.9, 234.58 144.74, 244.64 133.17 M0.29 155.14 C0.29 155.14, 0.29 155.14, 0.29 155.14 M0.29 155.14 C0.29 155.14, 0.29 155.14, 0.29 155.14 M24.37 154.88 C16.74 148.25, 9.12 141.62, 0.22 133.88 M24.37 154.88 C18.77 150.01, 13.18 145.15, 0.22 133.88 M48.45 154.61 C38.47 145.93, 28.49 137.26, 0.15 112.62 M48.45 154.61 C37.29 144.91, 26.12 135.2, 0.15 112.62 M73.29 155 C46.73 131.91, 20.17 108.82, 0.08 91.36 M73.29 155 C53.9 138.15, 34.51 121.29, 0.08 91.36 M97.37 154.73 C60.31 122.52, 23.26 90.31, 0.01 70.1 M97.37 154.73 C69.55 130.55, 41.74 106.37, 0.01 70.1 M122.21 155.12 C81.4 119.65, 40.59 84.17, -0.06 48.84 M122.21 155.12 C97.13 133.32, 72.05 111.52, -0.06 48.84 M146.29 154.86 C98.47 113.29, 50.65 71.72, -0.13 27.58 M146.29 154.86 C103.85 117.97, 61.41 81.07, -0.13 27.58 M170.37 154.59 C111.18 103.13, 51.98 51.68, -0.19 6.32 M170.37 154.59 C126.22 116.21, 82.07 77.83, -0.19 6.32 M195.21 154.98 C156.03 120.93, 116.86 86.87, 17.09 0.15 M195.21 154.98 C145.29 111.59, 95.37 68.2, 17.09 0.15 M219.29 154.71 C172.97 114.45, 126.66 74.19, 41.18 -0.12 M219.29 154.71 C171.53 113.19, 123.76 71.68, 41.18 -0.12 M244.12 155.1 C203.85 120.1, 163.58 85.09, 65.26 -0.38 M244.12 155.1 C194.12 111.64, 144.12 68.17, 65.26 -0.38 M244.81 134.5 C187.68 84.83, 130.54 35.17, 90.09 0.01 M244.81 134.5 C212.14 106.1, 179.48 77.7, 90.09 0.01 M244.74 113.24 C193.07 68.32, 141.4 23.4, 114.18 -0.26 M244.74 113.24 C193 68.26, 141.26 23.28, 114.18 -0.26 M244.67 91.98 C211.88 63.47, 179.09 34.97, 139.01 0.13 M244.67 91.98 C212.78 64.25, 180.89 36.53, 139.01 0.13 M244.6 70.72 C214.09 44.19, 183.58 17.67, 163.09 -0.14 M244.6 70.72 C218.11 47.69, 191.62 24.66, 163.09 -0.14 M244.53 49.46 C224.01 31.62, 203.48 13.77, 187.18 -0.4 M244.53 49.46 C227.89 34.99, 211.24 20.51, 187.18 -0.4 M244.47 28.2 C234.97 19.94, 225.47 11.69, 212.01 -0.01 M244.47 28.2 C236.48 21.25, 228.49 14.31, 212.01 -0.01 M244.4 6.94 C241.69 4.59, 238.99 2.24, 236.09 -0.28 M244.4 6.94 C241.39 4.32, 238.38 1.71, 236.09 -0.28" stroke="#a5d8ff" stroke-width="2" fill="none"></path><path d="M0 0 C85.63 0, 171.26 0, 244.03 0 M0 0 C70.77 0, 141.55 0, 244.03 0 M244.03 0 C244.03 33.99, 244.03 67.98, 244.03 154.89 M244.03 0 C244.03 36.42, 244.03 72.84, 244.03 154.89 M244.03 154.89 C189.14 154.89, 134.24 154.89, 0 154.89 M244.03 154.89 C187.72 154.89, 131.41 154.89, 0 154.89 M0 154.89 C0 116.94, 0 78.99, 0 0 M0 154.89 C0 105.04, 0 55.18, 0 0" stroke="#000000" stroke-width="4" fill="none"></path></g><g transform="translate(169.3269014649777 512.0611505583847) rotate(0 85.04296875 41.40000000000009)"><text x="85.04296875" y="0" font-family="Helvetica, Segoe UI Emoji" font-size="36px" fill="#000000" text-anchor="middle" style="white-space: pre;" direction="ltr" dominant-baseline="text-before-edge">Host Node</text><text x="85.04296875" y="41.4" font-family="Helvetica, Segoe UI Emoji" font-size="36px" fill="#000000" text-anchor="middle" style="white-space: pre;" direction="ltr" dominant-baseline="text-before-edge">2</text></g><g stroke-linecap="round" transform="translate(130.9723245472851 222.3002925140254) rotate(0 122.0167064836503 77.44580429229154)"><path d="M0 0 C0 0, 0 0, 0 0 M0 0 C0 0, 0 0, 0 0 M0.27 24.08 C6.58 16.82, 12.89 9.56, 21.26 -0.07 M0.27 24.08 C8.37 14.76, 16.48 5.43, 21.26 -0.07 M-0.12 48.92 C12.75 34.11, 25.61 19.31, 42.52 -0.14 M-0.12 48.92 C14.07 32.59, 28.26 16.26, 42.52 -0.14 M0.14 73 C20.35 49.75, 40.56 26.5, 63.78 -0.21 M0.14 73 C22.38 47.42, 44.61 21.84, 63.78 -0.21 M-0.25 97.84 C19.23 75.43, 38.71 53.02, 85.04 -0.28 M-0.25 97.84 C28.26 65.04, 56.78 32.24, 85.04 -0.28 M0.02 121.92 C27.4 90.42, 54.79 58.91, 106.3 -0.34 M0.02 121.92 C24.35 93.93, 48.68 65.94, 106.3 -0.34 M0.29 146 C28.78 113.22, 57.28 80.44, 126.91 0.34 M0.29 146 C40.09 100.21, 79.89 54.42, 126.91 0.34 M13.67 154.99 C53.95 108.65, 94.23 62.31, 148.17 0.27 M13.67 154.99 C41.69 122.75, 69.71 90.52, 148.17 0.27 M34.93 154.92 C68.88 115.87, 102.82 76.83, 169.43 0.2 M34.93 154.92 C83.63 98.9, 132.32 42.88, 169.43 0.2 M56.19 154.85 C84.52 122.26, 112.86 89.67, 190.69 0.13 M56.19 154.85 C90.78 115.07, 125.36 75.28, 190.69 0.13 M77.45 154.78 C119.14 106.82, 160.83 58.87, 211.95 0.06 M77.45 154.78 C118.12 108, 158.79 61.21, 211.95 0.06 M98.06 155.47 C131.55 116.94, 165.04 78.42, 233.21 0 M98.06 155.47 C129.25 119.59, 160.44 83.71, 233.21 0 M119.32 155.4 C161.49 106.88, 203.66 58.37, 244.63 11.25 M119.32 155.4 C168.97 98.28, 218.62 41.16, 244.63 11.25 M140.58 155.33 C167.35 124.53, 194.13 93.73, 244.89 35.33 M140.58 155.33 C179.24 110.85, 217.9 66.38, 244.89 35.33 M161.84 155.26 C187.45 125.8, 213.06 96.33, 244.5 60.17 M161.84 155.26 C181.72 132.39, 201.6 109.52, 244.5 60.17 M183.1 155.19 C206.04 128.8, 228.99 102.4, 244.77 84.25 M183.1 155.19 C195.68 140.72, 208.26 126.24, 244.77 84.25 M204.36 155.12 C218.23 139.16, 232.11 123.2, 244.38 109.08 M204.36 155.12 C215.08 142.79, 225.8 130.46, 244.38 109.08 M225.62 155.05 C231.66 148.1, 237.71 141.14, 244.64 133.17 M225.62 155.05 C230.26 149.71, 234.91 144.36, 244.64 133.17 M0.29 155.14 C0.29 155.14, 0.29 155.14, 0.29 155.14 M0.29 155.14 C0.29 155.14, 0.29 155.14, 0.29 155.14 M24.37 154.88 C16.96 148.43, 9.55 141.99, 0.22 133.88 M24.37 154.88 C17.36 148.78, 10.35 142.69, 0.22 133.88 M48.45 154.61 C30.4 138.92, 12.35 123.23, 0.15 112.62 M48.45 154.61 C29.95 138.53, 11.45 122.44, 0.15 112.62 M73.29 155 C48.32 133.29, 23.35 111.59, 0.08 91.36 M73.29 155 C49.31 134.15, 25.32 113.3, 0.08 91.36 M97.37 154.73 C59.13 121.5, 20.9 88.26, 0.01 70.1 M97.37 154.73 C76.34 136.45, 55.3 118.16, 0.01 70.1 M122.21 155.12 C84.1 122, 46 88.88, -0.06 48.84 M122.21 155.12 C94.45 130.99, 66.68 106.86, -0.06 48.84 M146.29 154.86 C97.49 112.44, 48.7 70.02, -0.13 27.58 M146.29 154.86 C99.03 113.78, 51.77 72.7, -0.13 27.58 M170.37 154.59 C119.44 110.32, 68.51 66.04, -0.19 6.32 M170.37 154.59 C128.46 118.16, 86.55 81.73, -0.19 6.32 M195.21 154.98 C140.46 107.39, 85.71 59.79, 17.09 0.15 M195.21 154.98 C156.8 121.59, 118.39 88.2, 17.09 0.15 M219.29 154.71 C171 112.73, 122.7 70.75, 41.18 -0.12 M219.29 154.71 C161.14 104.16, 102.98 53.61, 41.18 -0.12 M244.12 155.1 C178.6 98.15, 113.08 41.19, 65.26 -0.38 M244.12 155.1 C200.64 117.3, 157.15 79.5, 65.26 -0.38 M244.81 134.5 C184.87 82.39, 124.92 30.28, 90.09 0.01 M244.81 134.5 C183.19 80.93, 121.56 27.36, 90.09 0.01 M244.74 113.24 C218.59 90.51, 192.44 67.78, 114.18 -0.26 M244.74 113.24 C206.94 80.38, 169.14 47.52, 114.18 -0.26 M244.67 91.98 C213.52 64.9, 182.36 37.82, 139.01 0.13 M244.67 91.98 C215.52 66.63, 186.36 41.29, 139.01 0.13 M244.6 70.72 C225.15 53.81, 205.7 36.9, 163.09 -0.14 M244.6 70.72 C222.18 51.22, 199.75 31.73, 163.09 -0.14 M244.53 49.46 C231.36 38.01, 218.19 26.55, 187.18 -0.4 M244.53 49.46 C223.88 31.5, 203.22 13.54, 187.18 -0.4 M244.47 28.2 C233.12 18.33, 221.77 8.47, 212.01 -0.01 M244.47 28.2 C236.15 20.97, 227.83 13.74, 212.01 -0.01 M244.4 6.94 C241.76 4.65, 239.13 2.36, 236.09 -0.28 M244.4 6.94 C241.59 4.5, 238.79 2.06, 236.09 -0.28" stroke="#a5d8ff" stroke-width="2" fill="none"></path><path d="M0 0 C54.33 0, 108.65 0, 244.03 0 M0 0 C60.71 0, 121.41 0, 244.03 0 M244.03 0 C244.03 41.43, 244.03 82.87, 244.03 154.89 M244.03 0 C244.03 31.61, 244.03 63.21, 244.03 154.89 M244.03 154.89 C192.35 154.89, 140.66 154.89, 0 154.89 M244.03 154.89 C149.04 154.89, 54.05 154.89, 0 154.89 M0 154.89 C0 105.72, 0 56.56, 0 0 M0 154.89 C0 117.47, 0 80.04, 0 0" stroke="#000000" stroke-width="4" fill="none"></path></g><g transform="translate(167.94606228093562 258.3460968063173) rotate(0 85.04296875 41.40000000000009)"><text x="85.04296875" y="0" font-family="Helvetica, Segoe UI Emoji" font-size="36px" fill="#000000" text-anchor="middle" style="white-space: pre;" direction="ltr" dominant-baseline="text-before-edge">Host Node</text><text x="85.04296875" y="41.4" font-family="Helvetica, Segoe UI Emoji" font-size="36px" fill="#000000" text-anchor="middle" style="white-space: pre;" direction="ltr" dominant-baseline="text-before-edge">3</text></g></svg>
