<svg version="1.1" xmlns="http://www.w3.org/2000/svg" viewBox="0 0 1635.7473615461058 984.8528060455665" width="1635.7473615461058" height="984.8528060455665">
  <!-- svg-source:excalidraw -->
  
  <defs>
    <style class="style-fonts">
      @font-face {
        font-family: "Virgil";
        src: url("https://excalidraw.com/Virgil.woff2");
      }
      @font-face {
        font-family: "Cascadia";
        src: url("https://excalidraw.com/Cascadia.woff2");
      }
      @font-face {
        font-family: "Assistant";
        src: url("https://excalidraw.com/Assistant-Regular.woff2");
      }
    </style>
    
  </defs>
  <rect x="0" y="0" width="1635.7473615461058" height="984.8528060455665" fill="none"></rect><g stroke-linecap="round" transform="translate(1380.7524785039595 86.7926343494646) rotate(0 122 120.5)"><path d="M244 120.5 C244 124, 243.84 127.51, 243.54 131 C243.23 134.49, 242.76 137.98, 242.15 141.42 C241.53 144.87, 240.76 148.31, 239.84 151.69 C238.93 155.07, 237.85 158.42, 236.64 161.71 C235.43 165, 234.07 168.25, 232.57 171.43 C231.07 174.6, 229.43 177.72, 227.66 180.75 C225.88 183.78, 223.97 186.75, 221.94 189.62 C219.9 192.48, 217.74 195.27, 215.46 197.96 C213.18 200.64, 210.77 203.23, 208.27 205.71 C205.76 208.18, 203.14 210.56, 200.42 212.81 C197.7 215.06, 194.88 217.2, 191.98 219.21 C189.07 221.22, 186.07 223.11, 183 224.86 C179.93 226.61, 176.77 228.23, 173.56 229.71 C170.35 231.19, 167.06 232.54, 163.73 233.73 C160.4 234.93, 157 235.99, 153.58 236.89 C150.15 237.8, 146.68 238.56, 143.19 239.17 C139.69 239.78, 136.16 240.24, 132.63 240.54 C129.1 240.85, 125.54 241, 122 241 C118.46 241, 114.9 240.85, 111.37 240.54 C107.84 240.24, 104.31 239.78, 100.81 239.17 C97.32 238.56, 93.85 237.8, 90.42 236.89 C87 235.99, 83.6 234.93, 80.27 233.73 C76.94 232.54, 73.65 231.19, 70.44 229.71 C67.23 228.23, 64.07 226.61, 61 224.86 C57.93 223.11, 54.93 221.22, 52.02 219.21 C49.12 217.2, 46.3 215.06, 43.58 212.81 C40.86 210.56, 38.24 208.18, 35.73 205.71 C33.23 203.23, 30.82 200.64, 28.54 197.96 C26.26 195.27, 24.1 192.48, 22.06 189.62 C20.03 186.75, 18.12 183.78, 16.34 180.75 C14.57 177.72, 12.93 174.6, 11.43 171.43 C9.93 168.25, 8.57 165, 7.36 161.71 C6.15 158.42, 5.07 155.07, 4.16 151.69 C3.24 148.31, 2.47 144.87, 1.85 141.42 C1.24 137.98, 0.77 134.49, 0.46 131 C0.16 127.51, 0 124, 0 120.5 C0 117, 0.16 113.49, 0.46 110 C0.77 106.51, 1.24 103.02, 1.85 99.58 C2.47 96.13, 3.24 92.69, 4.16 89.31 C5.07 85.93, 6.15 82.58, 7.36 79.29 C8.57 76, 9.93 72.75, 11.43 69.57 C12.93 66.4, 14.57 63.28, 16.34 60.25 C18.12 57.22, 20.03 54.25, 22.06 51.38 C24.1 48.52, 26.26 45.73, 28.54 43.04 C30.82 40.36, 33.23 37.77, 35.73 35.29 C38.24 32.82, 40.86 30.44, 43.58 28.19 C46.3 25.94, 49.12 23.8, 52.02 21.79 C54.93 19.78, 57.93 17.89, 61 16.14 C64.07 14.39, 67.23 12.77, 70.44 11.29 C73.65 9.81, 76.94 8.46, 80.27 7.27 C83.6 6.07, 87 5.01, 90.42 4.11 C93.85 3.2, 97.32 2.44, 100.81 1.83 C104.31 1.22, 107.84 0.76, 111.37 0.46 C114.9 0.15, 118.46 0, 122 0 C125.54 0, 129.1 0.15, 132.63 0.46 C136.16 0.76, 139.69 1.22, 143.19 1.83 C146.68 2.44, 150.15 3.2, 153.58 4.11 C157 5.01, 160.4 6.07, 163.73 7.27 C167.06 8.46, 170.35 9.81, 173.56 11.29 C176.77 12.77, 179.93 14.39, 183 16.14 C186.07 17.89, 189.07 19.78, 191.98 21.79 C194.88 23.8, 197.7 25.94, 200.42 28.19 C203.14 30.44, 205.76 32.82, 208.27 35.29 C210.77 37.77, 213.18 40.36, 215.46 43.04 C217.74 45.73, 219.9 48.52, 221.94 51.38 C223.97 54.25, 225.88 57.22, 227.66 60.25 C229.43 63.28, 231.07 66.4, 232.57 69.57 C234.07 72.75, 235.43 76, 236.64 79.29 C237.85 82.58, 238.93 85.93, 239.84 89.31 C240.76 92.69, 241.53 96.13, 242.15 99.58 C242.76 103.02, 243.23 106.51, 243.54 110 C243.84 113.49, 243.92 118.75, 244 120.5 C244.08 122.25, 244.08 118.75, 244 120.5" stroke="#000000" stroke-width="4" fill="none"></path></g><g transform="translate(1455.9815449492007 186.38626721648598) rotate(0 47.00390625 20.699999999999818)"><text x="47.00390625" y="0" font-family="Helvetica, Segoe UI Emoji" font-size="36px" fill="#000000" text-anchor="middle" style="white-space: pre;" direction="ltr" dominant-baseline="text-before-edge">Users</text></g><g mask="url(#mask-bmG0thVXlQb61voKCHqVQ)" stroke-linecap="round"><g transform="translate(1362.8053097439688 175.56885959921237) rotate(0 -421.4917342944159 -28.164217075202487)"><path d="M0 0 C-61.34 -7.03, -227.57 -32.8, -368.06 -42.19 C-508.56 -51.58, -763.83 -53.97, -842.98 -56.33 M0 0 C-61.34 -7.03, -227.57 -32.8, -368.06 -42.19 C-508.56 -51.58, -763.83 -53.97, -842.98 -56.33" stroke="#f08c00" stroke-width="4" fill="none"></path></g><g transform="translate(1362.8053097439688 175.56885959921237) rotate(0 -421.4917342944159 -28.164217075202487)"><path d="M-819.32 -64.39 C-827.46 -61.61, -835.6 -58.84, -842.98 -56.33 M-819.32 -64.39 C-828.4 -61.29, -837.49 -58.2, -842.98 -56.33" stroke="#f08c00" stroke-width="4" fill="none"></path></g><g transform="translate(1362.8053097439688 175.56885959921237) rotate(0 -421.4917342944159 -28.164217075202487)"><path d="M-819.67 -47.29 C-827.69 -50.4, -835.71 -53.51, -842.98 -56.33 M-819.67 -47.29 C-828.62 -50.76, -837.57 -54.23, -842.98 -56.33" stroke="#f08c00" stroke-width="4" fill="none"></path></g></g><mask id="mask-bmG0thVXlQb61voKCHqVQ"><rect x="0" y="0" fill="#fff" width="2305.7887783328006" height="331.8972937496169"></rect><rect x="895.689939675718" y="112.67690581601619" fill="#000" width="198.10546875" height="41.4" opacity="1"></rect></mask><g transform="translate(895.689939675718 112.67690581601619) rotate(0 45.62363577383485 34.7277367079937)"><text x="99.052734375" y="0" font-family="Helvetica, Segoe UI Emoji" font-size="36px" fill="#1e1e1e" text-anchor="middle" style="white-space: pre;" direction="ltr" dominant-baseline="text-before-edge">Subscription</text></g><g stroke-linecap="round" transform="translate(1381.7473615461058 664.7619515387278) rotate(0 122 120.5)"><path d="M244 120.5 C244 124, 243.84 127.51, 243.54 131 C243.23 134.49, 242.76 137.98, 242.15 141.42 C241.53 144.87, 240.76 148.31, 239.84 151.69 C238.93 155.07, 237.85 158.42, 236.64 161.71 C235.43 165, 234.07 168.25, 232.57 171.43 C231.07 174.6, 229.43 177.72, 227.66 180.75 C225.88 183.78, 223.97 186.75, 221.94 189.62 C219.9 192.48, 217.74 195.27, 215.46 197.96 C213.18 200.64, 210.77 203.23, 208.27 205.71 C205.76 208.18, 203.14 210.56, 200.42 212.81 C197.7 215.06, 194.88 217.2, 191.98 219.21 C189.07 221.22, 186.07 223.11, 183 224.86 C179.93 226.61, 176.77 228.23, 173.56 229.71 C170.35 231.19, 167.06 232.54, 163.73 233.73 C160.4 234.93, 157 235.99, 153.58 236.89 C150.15 237.8, 146.68 238.56, 143.19 239.17 C139.69 239.78, 136.16 240.24, 132.63 240.54 C129.1 240.85, 125.54 241, 122 241 C118.46 241, 114.9 240.85, 111.37 240.54 C107.84 240.24, 104.31 239.78, 100.81 239.17 C97.32 238.56, 93.85 237.8, 90.42 236.89 C87 235.99, 83.6 234.93, 80.27 233.73 C76.94 232.54, 73.65 231.19, 70.44 229.71 C67.23 228.23, 64.07 226.61, 61 224.86 C57.93 223.11, 54.93 221.22, 52.02 219.21 C49.12 217.2, 46.3 215.06, 43.58 212.81 C40.86 210.56, 38.24 208.18, 35.73 205.71 C33.23 203.23, 30.82 200.64, 28.54 197.96 C26.26 195.27, 24.1 192.48, 22.06 189.62 C20.03 186.75, 18.12 183.78, 16.34 180.75 C14.57 177.72, 12.93 174.6, 11.43 171.43 C9.93 168.25, 8.57 165, 7.36 161.71 C6.15 158.42, 5.07 155.07, 4.16 151.69 C3.24 148.31, 2.47 144.87, 1.85 141.42 C1.24 137.98, 0.77 134.49, 0.46 131 C0.16 127.51, 0 124, 0 120.5 C0 117, 0.16 113.49, 0.46 110 C0.77 106.51, 1.24 103.02, 1.85 99.58 C2.47 96.13, 3.24 92.69, 4.16 89.31 C5.07 85.93, 6.15 82.58, 7.36 79.29 C8.57 76, 9.93 72.75, 11.43 69.57 C12.93 66.4, 14.57 63.28, 16.34 60.25 C18.12 57.22, 20.03 54.25, 22.06 51.38 C24.1 48.52, 26.26 45.73, 28.54 43.04 C30.82 40.36, 33.23 37.77, 35.73 35.29 C38.24 32.82, 40.86 30.44, 43.58 28.19 C46.3 25.94, 49.12 23.8, 52.02 21.79 C54.93 19.78, 57.93 17.89, 61 16.14 C64.07 14.39, 67.23 12.77, 70.44 11.29 C73.65 9.81, 76.94 8.46, 80.27 7.27 C83.6 6.07, 87 5.01, 90.42 4.11 C93.85 3.2, 97.32 2.44, 100.81 1.83 C104.31 1.22, 107.84 0.76, 111.37 0.46 C114.9 0.15, 118.46 0, 122 0 C125.54 0, 129.1 0.15, 132.63 0.46 C136.16 0.76, 139.69 1.22, 143.19 1.83 C146.68 2.44, 150.15 3.2, 153.58 4.11 C157 5.01, 160.4 6.07, 163.73 7.27 C167.06 8.46, 170.35 9.81, 173.56 11.29 C176.77 12.77, 179.93 14.39, 183 16.14 C186.07 17.89, 189.07 19.78, 191.98 21.79 C194.88 23.8, 197.7 25.94, 200.42 28.19 C203.14 30.44, 205.76 32.82, 208.27 35.29 C210.77 37.77, 213.18 40.36, 215.46 43.04 C217.74 45.73, 219.9 48.52, 221.94 51.38 C223.97 54.25, 225.88 57.22, 227.66 60.25 C229.43 63.28, 231.07 66.4, 232.57 69.57 C234.07 72.75, 235.43 76, 236.64 79.29 C237.85 82.58, 238.93 85.93, 239.84 89.31 C240.76 92.69, 241.53 96.13, 242.15 99.58 C242.76 103.02, 243.23 106.51, 243.54 110 C243.84 113.49, 243.92 118.75, 244 120.5 C244.08 122.25, 244.08 118.75, 244 120.5" stroke="#000000" stroke-width="4" fill="none"></path></g><g transform="translate(1457.969592053847 764.3555844057491) rotate(0 46.0107421875 20.699999999999818)"><text x="46.0107421875" y="0" font-family="Helvetica, Segoe UI Emoji" font-size="36px" fill="#000000" text-anchor="middle" style="white-space: pre;" direction="ltr" dominant-baseline="text-before-edge">Hosts</text></g><g mask="url(#mask-nGltsTmim_lNN78uuPJLP)" stroke-linecap="round"><g transform="translate(1370.6893716795712 825.7769174936138) rotate(0 -423.9092711154608 23.87115049824388)"><path d="M0 0 C-67.32 7.96, -262.61 40.45, -403.91 47.74 C-545.22 55.03, -773.83 44.4, -847.82 43.73 M0 0 C-67.32 7.96, -262.61 40.45, -403.91 47.74 C-545.22 55.03, -773.83 44.4, -847.82 43.73" stroke="#f08c00" stroke-width="4" fill="none"></path></g><g transform="translate(1370.6893716795712 825.7769174936138) rotate(0 -423.9092711154608 23.87115049824388)"><path d="M-824.12 35.76 C-832.59 38.61, -841.05 41.45, -847.82 43.73 M-824.12 35.76 C-833.39 38.88, -842.66 41.99, -847.82 43.73" stroke="#f08c00" stroke-width="4" fill="none"></path></g><g transform="translate(1370.6893716795712 825.7769174936138) rotate(0 -423.9092711154608 23.87115049824388)"><path d="M-824.55 52.86 C-832.86 49.6, -841.18 46.33, -847.82 43.73 M-824.55 52.86 C-833.65 49.29, -842.75 45.72, -847.82 43.73" stroke="#f08c00" stroke-width="4" fill="none"></path></g></g><mask id="mask-nGltsTmim_lNN78uuPJLP"><rect x="0" y="0" fill="#fff" width="2318.507913910493" height="973.5192184901016"></rect><rect x="781.6688502265388" y="852.8192184901018" fill="#000" width="370.212890625" height="41.4" opacity="1"></rect></mask><g transform="translate(781.6688502265388 852.8192184901018) rotate(0 165.11125033757162 -1.900399546155768)"><text x="185.1064453125" y="0" font-family="Helvetica, Segoe UI Emoji" font-size="36px" fill="#1e1e1e" text-anchor="middle" style="white-space: pre;" direction="ltr" dominant-baseline="text-before-edge">Sign up &amp; grant access</text></g><g mask="url(#mask-oCmBQ2nlpvYvi31f9WOJB)" stroke-linecap="round"><g transform="translate(1372.0788060290006 262.48652049892735) rotate(0 -156.76696598890317 58.70312115116894)"><path d="M0 0 C-29.94 4.73, -127.39 8.83, -179.65 28.39 C-231.9 47.96, -291.22 102.57, -313.53 117.41 M0 0 C-29.94 4.73, -127.39 8.83, -179.65 28.39 C-231.9 47.96, -291.22 102.57, -313.53 117.41" stroke="#2f9e44" stroke-width="4" fill="none"></path></g><g transform="translate(1372.0788060290006 262.48652049892735) rotate(0 -156.76696598890317 58.70312115116894)"><path d="M-300.06 96.35 C-305.37 104.65, -310.68 112.95, -313.53 117.41 M-300.06 96.35 C-303.37 101.53, -306.69 106.7, -313.53 117.41" stroke="#2f9e44" stroke-width="4" fill="none"></path></g><g transform="translate(1372.0788060290006 262.48652049892735) rotate(0 -156.76696598890317 58.70312115116894)"><path d="M-289.68 109.94 C-299.08 112.88, -308.49 115.83, -313.53 117.41 M-289.68 109.94 C-295.54 111.77, -301.41 113.61, -313.53 117.41" stroke="#2f9e44" stroke-width="4" fill="none"></path></g></g><mask id="mask-oCmBQ2nlpvYvi31f9WOJB"><rect x="0" y="0" fill="#fff" width="1785.612738006807" height="479.89276280126523"></rect><rect x="1051.3868715139843" y="249.47938066213283" fill="#000" width="282.09375" height="82.8" opacity="1"></rect></mask><g transform="translate(1051.3868715139843 249.47938066213283) rotate(0 163.92496852611316 71.71026098796347)"><text x="141.046875" y="0" font-family="Helvetica, Segoe UI Emoji" font-size="36px" fill="#2f9e44" text-anchor="middle" style="white-space: pre;" direction="ltr" dominant-baseline="text-before-edge">Sign up </text><text x="141.046875" y="41.4" font-family="Helvetica, Segoe UI Emoji" font-size="36px" fill="#2f9e44" text-anchor="middle" style="white-space: pre;" direction="ltr" dominant-baseline="text-before-edge">(membership fee)</text></g><g stroke-linecap="round" transform="translate(824.3036231553979 393.99955495396534) rotate(0 122.0167064836503 77.44580429229154)"><path d="M0 0 C0 0, 0 0, 0 0 M0 0 C0 0, 0 0, 0 0 M0.27 24.08 C5.87 17.63, 11.48 11.18, 21.26 -0.07 M0.27 24.08 C7.69 15.54, 15.12 7, 21.26 -0.07 M-0.12 48.92 C15.17 31.33, 30.46 13.74, 42.52 -0.14 M-0.12 48.92 C13.54 33.2, 27.21 17.47, 42.52 -0.14 M0.14 73 C14.27 56.75, 28.39 40.5, 63.78 -0.21 M0.14 73 C17.13 53.46, 34.11 33.93, 63.78 -0.21 M-0.25 97.84 C32.32 60.37, 64.89 22.91, 85.04 -0.28 M-0.25 97.84 C20.29 74.21, 40.84 50.58, 85.04 -0.28 M0.02 121.92 C23.23 95.22, 46.43 68.52, 106.3 -0.34 M0.02 121.92 C23.5 94.91, 46.98 67.9, 106.3 -0.34 M0.29 146 C28.17 113.92, 56.05 81.85, 126.91 0.34 M0.29 146 C27.23 115, 54.18 84.01, 126.91 0.34 M13.67 154.99 C59.14 102.69, 104.6 50.39, 148.17 0.27 M13.67 154.99 C46.8 116.88, 79.93 78.77, 148.17 0.27 M34.93 154.92 C66.85 118.2, 98.77 81.48, 169.43 0.2 M34.93 154.92 C71.55 112.79, 108.17 70.67, 169.43 0.2 M56.19 154.85 C90.04 115.91, 123.89 76.97, 190.69 0.13 M56.19 154.85 C104.53 99.24, 152.87 43.64, 190.69 0.13 M77.45 154.78 C109.18 118.28, 140.91 81.78, 211.95 0.06 M77.45 154.78 C130.06 94.27, 182.66 33.76, 211.95 0.06 M98.06 155.47 C141.19 105.85, 184.32 56.24, 233.21 0 M98.06 155.47 C133.53 114.65, 169.01 73.84, 233.21 0 M119.32 155.4 C164.16 103.81, 209 52.23, 244.63 11.25 M119.32 155.4 C166.57 101.04, 213.83 46.68, 244.63 11.25 M140.58 155.33 C170.74 120.63, 200.91 85.92, 244.89 35.33 M140.58 155.33 C166.02 126.06, 191.46 96.8, 244.89 35.33 M161.84 155.26 C193.58 118.75, 225.32 82.23, 244.5 60.17 M161.84 155.26 C192.75 119.7, 223.67 84.13, 244.5 60.17 M183.1 155.19 C207.75 126.83, 232.41 98.47, 244.77 84.25 M183.1 155.19 C200.23 135.49, 217.35 115.79, 244.77 84.25 M204.36 155.12 C213.73 144.34, 223.11 133.55, 244.38 109.08 M204.36 155.12 C218.82 138.48, 233.28 121.85, 244.38 109.08 M225.62 155.05 C230.91 148.97, 236.19 142.89, 244.64 133.17 M225.62 155.05 C231.79 147.96, 237.95 140.86, 244.64 133.17 M0.29 155.14 C0.29 155.14, 0.29 155.14, 0.29 155.14 M0.29 155.14 C0.29 155.14, 0.29 155.14, 0.29 155.14 M24.37 154.88 C18.58 149.85, 12.8 144.82, 0.22 133.88 M24.37 154.88 C18.83 150.06, 13.3 145.25, 0.22 133.88 M48.45 154.61 C29.98 138.56, 11.52 122.5, 0.15 112.62 M48.45 154.61 C38.49 145.95, 28.53 137.29, 0.15 112.62 M73.29 155 C44.74 130.18, 16.19 105.37, 0.08 91.36 M73.29 155 C56.81 140.68, 40.33 126.35, 0.08 91.36 M97.37 154.73 C66.67 128.05, 35.97 101.36, 0.01 70.1 M97.37 154.73 C67.91 129.12, 38.45 103.52, 0.01 70.1 M122.21 155.12 C82.7 120.78, 43.19 86.44, -0.06 48.84 M122.21 155.12 C94.15 130.73, 66.09 106.34, -0.06 48.84 M146.29 154.86 C96.08 111.21, 45.87 67.57, -0.13 27.58 M146.29 154.86 C107.12 120.8, 67.94 86.75, -0.13 27.58 M170.37 154.59 C132.44 121.62, 94.51 88.65, -0.19 6.32 M170.37 154.59 C111.29 103.23, 52.2 51.87, -0.19 6.32 M195.21 154.98 C127.47 96.1, 59.73 37.21, 17.09 0.15 M195.21 154.98 C131.01 99.17, 66.81 43.37, 17.09 0.15 M219.29 154.71 C155.18 98.98, 91.07 43.25, 41.18 -0.12 M219.29 154.71 C154.16 98.1, 89.04 41.49, 41.18 -0.12 M244.12 155.1 C193.71 111.28, 143.29 67.45, 65.26 -0.38 M244.12 155.1 C194.66 112.11, 145.2 69.11, 65.26 -0.38 M244.81 134.5 C183.35 81.08, 121.9 27.65, 90.09 0.01 M244.81 134.5 C204.13 99.13, 163.44 63.77, 90.09 0.01 M244.74 113.24 C200.23 74.55, 155.72 35.85, 114.18 -0.26 M244.74 113.24 C212.49 85.2, 180.23 57.16, 114.18 -0.26 M244.67 91.98 C214.6 65.84, 184.53 39.7, 139.01 0.13 M244.67 91.98 C212.97 64.42, 181.27 36.86, 139.01 0.13 M244.6 70.72 C212.82 43.09, 181.04 15.46, 163.09 -0.14 M244.6 70.72 C216.96 46.69, 189.31 22.66, 163.09 -0.14 M244.53 49.46 C223.79 31.43, 203.05 13.4, 187.18 -0.4 M244.53 49.46 C225.92 33.28, 207.3 17.1, 187.18 -0.4 M244.47 28.2 C234.71 19.72, 224.96 11.25, 212.01 -0.01 M244.47 28.2 C232.91 18.16, 221.36 8.11, 212.01 -0.01 M244.4 6.94 C242.26 5.09, 240.13 3.23, 236.09 -0.28 M244.4 6.94 C242.15 4.99, 239.91 3.04, 236.09 -0.28" stroke="#b2f2bb" stroke-width="2" fill="none"></path><path d="M0 0 C55.59 0, 111.18 0, 244.03 0 M0 0 C60.76 0, 121.51 0, 244.03 0 M244.03 0 C244.03 46.61, 244.03 93.21, 244.03 154.89 M244.03 0 C244.03 39.93, 244.03 79.86, 244.03 154.89 M244.03 154.89 C171.42 154.89, 98.81 154.89, 0 154.89 M244.03 154.89 C153.59 154.89, 63.15 154.89, 0 154.89 M0 154.89 C0 98.93, 0 42.97, 0 0 M0 154.89 C0 102.72, 0 50.55, 0 0" stroke="#000000" stroke-width="4" fill="none"></path></g><g transform="translate(886.2998218265484 450.74535924625707) rotate(0 60.0205078125 20.699999999999818)"><text x="60.0205078125" y="0" font-family="Helvetica, Segoe UI Emoji" font-size="36px" fill="#000000" text-anchor="middle" style="white-space: pre;" direction="ltr" dominant-baseline="text-before-edge">Skypier</text></g><g mask="url(#mask-yQYQVXWQKlB3gvN7eyftC)" stroke-linecap="round"><g transform="translate(996.4277986151219 571.0685662866417) rotate(0 189.31048082330244 79.01547464557143)"><path d="M0 0 C25.11 14.88, 87.57 62.93, 150.67 89.27 C213.78 115.61, 340.63 146.57, 378.62 158.03 M0 0 C25.11 14.88, 87.57 62.93, 150.67 89.27 C213.78 115.61, 340.63 146.57, 378.62 158.03" stroke="#2f9e44" stroke-width="4" fill="none"></path></g><g transform="translate(996.4277986151219 571.0685662866417) rotate(0 189.31048082330244 79.01547464557143)"><path d="M353.7 160.02 C359.63 159.55, 365.56 159.07, 378.62 158.03 M353.7 160.02 C360.45 159.48, 367.21 158.94, 378.62 158.03" stroke="#2f9e44" stroke-width="4" fill="none"></path></g><g transform="translate(996.4277986151219 571.0685662866417) rotate(0 189.31048082330244 79.01547464557143)"><path d="M358.25 143.54 C363.1 146.98, 367.94 150.43, 378.62 158.03 M358.25 143.54 C363.77 147.46, 369.29 151.39, 378.62 158.03" stroke="#2f9e44" stroke-width="4" fill="none"></path></g></g><mask id="mask-yQYQVXWQKlB3gvN7eyftC"><rect x="0" y="0" fill="#fff" width="1475.0487602617268" height="829.0995155777846"></rect><rect x="975.0126389602356" y="618.9398480415339" fill="#000" width="344.1796875" height="82.8" opacity="1"></rect></mask><g transform="translate(975.0126389602356 618.9398480415339) rotate(0 210.72564047818878 31.144192890679278)"><text x="172.08984375" y="0" font-family="Helvetica, Segoe UI Emoji" font-size="36px" fill="#2f9e44" text-anchor="middle" style="white-space: pre;" direction="ltr" dominant-baseline="text-before-edge">Get Paid in preferred </text><text x="172.08984375" y="41.4" font-family="Helvetica, Segoe UI Emoji" font-size="36px" fill="#2f9e44" text-anchor="middle" style="white-space: pre;" direction="ltr" dominant-baseline="text-before-edge">Currency ($)</text></g><g mask="url(#mask-ofGag3zcEoMB6s3qrQenH)" stroke-linecap="round"><g transform="translate(806.2413420397688 491.29989899733846) rotate(0 -140.17273632474394 4.345743401193886)"><path d="M0 0 C-46.72 1.45, -233.62 7.24, -280.35 8.69 M0 0 C-46.72 1.45, -233.62 7.24, -280.35 8.69" stroke="#2f9e44" stroke-width="4" fill="none"></path></g><g transform="translate(806.2413420397688 491.29989899733846) rotate(0 -140.17273632474394 4.345743401193886)"><path d="M-257.13 -0.58 C-264.76 2.47, -272.4 5.52, -280.35 8.69 M-257.13 -0.58 C-265.12 2.61, -273.1 5.8, -280.35 8.69" stroke="#2f9e44" stroke-width="4" fill="none"></path></g><g transform="translate(806.2413420397688 491.29989899733846) rotate(0 -140.17273632474394 4.345743401193886)"><path d="M-256.6 16.51 C-264.41 13.94, -272.22 11.37, -280.35 8.69 M-256.6 16.51 C-264.77 13.82, -272.94 11.13, -280.35 8.69" stroke="#2f9e44" stroke-width="4" fill="none"></path></g></g><mask id="mask-ofGag3zcEoMB6s3qrQenH"><rect x="0" y="0" fill="#fff" width="1186.5868146892567" height="599.9913857997262"></rect><rect x="601.0471213400251" y="454.24564239853225" fill="#000" width="130.04296875" height="82.8" opacity="1"></rect></mask><g transform="translate(601.0471213400251 454.24564239853225) rotate(0 65.02148437499977 41.40000000000009)"><text x="65.021484375" y="0" font-family="Helvetica, Segoe UI Emoji" font-size="36px" fill="#2f9e44" text-anchor="middle" style="white-space: pre;" direction="ltr" dominant-baseline="text-before-edge">Service </text><text x="65.021484375" y="41.4" font-family="Helvetica, Segoe UI Emoji" font-size="36px" fill="#2f9e44" text-anchor="middle" style="white-space: pre;" direction="ltr" dominant-baseline="text-before-edge">fee</text></g><g stroke-linecap="round" transform="translate(10 10) rotate(0 241.86964587666807 482.42640302278323)"><path d="M7.86 8.16 C7.86 8.16, 7.86 8.16, 7.86 8.16 M7.86 8.16 C7.86 8.16, 7.86 8.16, 7.86 8.16 M0.26 41.3 C11.72 28.1, 23.19 14.91, 36.34 -0.21 M0.26 41.3 C9.47 30.69, 18.69 20.09, 36.34 -0.21 M0.52 65.38 C23.18 39.31, 45.85 13.24, 57.6 -0.28 M0.52 65.38 C21.73 40.98, 42.94 16.58, 57.6 -0.28 M0.13 90.22 C27.12 59.17, 54.11 28.12, 78.2 0.41 M0.13 90.22 C20.54 66.74, 40.95 43.26, 78.2 0.41 M0.4 114.3 C20.55 91.11, 40.71 67.93, 99.46 0.34 M0.4 114.3 C38.49 70.48, 76.58 26.66, 99.46 0.34 M0.01 139.13 C35.88 97.87, 71.75 56.61, 120.72 0.27 M0.01 139.13 C44.25 88.24, 88.49 37.35, 120.72 0.27 M0.27 163.22 C40.62 116.8, 80.97 70.38, 141.98 0.2 M0.27 163.22 C36.4 121.66, 72.53 80.1, 141.98 0.2 M0.54 187.3 C65.46 112.62, 130.38 37.94, 163.24 0.13 M0.54 187.3 C61.69 116.96, 122.83 46.62, 163.24 0.13 M0.15 212.13 C53.84 150.37, 107.54 88.6, 184.5 0.06 M0.15 212.13 C71.97 129.51, 143.8 46.89, 184.5 0.06 M0.42 236.22 C56.91 171.23, 113.4 106.25, 205.76 -0.01 M0.42 236.22 C71.8 154.1, 143.19 71.98, 205.76 -0.01 M0.03 261.05 C84.06 164.38, 168.1 67.71, 227.02 -0.08 M0.03 261.05 C79.09 170.1, 158.15 79.15, 227.02 -0.08 M0.29 285.13 C86.12 186.41, 171.94 87.68, 248.28 -0.15 M0.29 285.13 C97.84 172.92, 195.38 60.71, 248.28 -0.15 M-0.1 309.97 C98.51 196.53, 197.12 83.09, 269.54 -0.22 M-0.1 309.97 C65.7 234.28, 131.49 158.6, 269.54 -0.22 M0.17 334.05 C66.86 257.33, 133.55 180.62, 290.8 -0.28 M0.17 334.05 C80.8 241.3, 161.42 148.55, 290.8 -0.28 M0.44 358.13 C68.45 279.89, 136.47 201.65, 311.41 0.4 M0.44 358.13 C107.02 235.52, 213.61 112.91, 311.41 0.4 M0.05 382.97 C113.03 253, 226.01 123.03, 332.67 0.33 M0.05 382.97 C72.39 299.74, 144.74 216.52, 332.67 0.33 M0.31 407.05 C130.12 257.73, 259.92 108.41, 353.93 0.26 M0.31 407.05 C93.58 299.76, 186.84 192.48, 353.93 0.26 M-0.08 431.89 C107.99 307.57, 216.06 183.25, 375.19 0.19 M-0.08 431.89 C106.63 309.14, 213.34 186.38, 375.19 0.19 M0.19 455.97 C137.1 298.48, 274 140.99, 396.45 0.12 M0.19 455.97 C150.49 283.07, 300.78 110.18, 396.45 0.12 M0.46 480.05 C118.35 344.44, 236.23 208.82, 417.71 0.06 M0.46 480.05 C84.67 383.17, 168.89 286.29, 417.71 0.06 M0.07 504.89 C169.29 310.21, 338.52 115.54, 438.97 -0.01 M0.07 504.89 C94.36 396.42, 188.65 287.95, 438.97 -0.01 M0.33 528.97 C151.14 355.49, 301.94 182.01, 459.57 0.67 M0.33 528.97 C159.67 345.67, 319 162.38, 459.57 0.67 M-0.06 553.81 C102.43 435.91, 204.92 318.01, 474.93 7.4 M-0.06 553.81 C118.18 417.78, 236.43 281.76, 474.93 7.4 M0.21 577.89 C110.01 451.58, 219.81 325.26, 483.07 22.42 M0.21 577.89 C169.13 383.56, 338.06 189.24, 483.07 22.42 M0.48 601.97 C126.89 456.55, 253.3 311.13, 483.99 45.75 M0.48 601.97 C151.96 427.71, 303.44 253.45, 483.99 45.75 M0.09 626.81 C183.04 416.34, 366 205.87, 483.6 70.58 M0.09 626.81 C142.11 463.42, 284.14 300.04, 483.6 70.58 M0.35 650.89 C118.71 514.73, 237.07 378.57, 483.87 94.67 M0.35 650.89 C190.23 432.45, 380.11 214.02, 483.87 94.67 M-0.04 675.72 C182.49 465.75, 365.02 255.77, 484.13 118.75 M-0.04 675.72 C152.49 500.26, 305.02 324.79, 484.13 118.75 M0.23 699.81 C186.34 485.71, 372.45 271.61, 483.74 143.58 M0.23 699.81 C109.08 574.58, 217.94 449.36, 483.74 143.58 M0.49 723.89 C104.81 603.88, 209.13 483.88, 484.01 167.67 M0.49 723.89 C98.76 610.85, 197.02 497.81, 484.01 167.67 M0.11 748.72 C192.44 527.47, 384.77 306.22, 483.62 192.5 M0.11 748.72 C145.94 580.96, 291.78 413.19, 483.62 192.5 M0.37 772.81 C137.72 614.81, 275.06 456.81, 483.89 216.58 M0.37 772.81 C97.53 661.04, 194.68 549.27, 483.89 216.58 M-0.02 797.64 C143.4 632.65, 286.83 467.66, 484.15 240.67 M-0.02 797.64 C128.95 649.28, 257.92 500.92, 484.15 240.67 M0.25 821.72 C178.28 616.92, 356.31 412.12, 483.76 265.5 M0.25 821.72 C98.85 708.3, 197.45 594.87, 483.76 265.5 M0.51 845.81 C189.07 628.9, 377.63 411.99, 484.03 289.58 M0.51 845.81 C153.64 669.66, 306.76 493.51, 484.03 289.58 M0.12 870.64 C121.64 730.85, 243.16 591.06, 483.64 314.42 M0.12 870.64 C174.7 669.81, 349.28 468.98, 483.64 314.42 M0.39 894.72 C138.49 735.86, 276.58 577, 483.91 338.5 M0.39 894.72 C98.55 781.8, 196.72 668.88, 483.91 338.5 M0 919.56 C151.77 744.97, 303.54 570.37, 484.17 362.58 M0 919.56 C132.83 766.75, 265.67 613.94, 484.17 362.58 M1.58 942.13 C139.78 783.15, 277.98 624.17, 483.78 387.42 M1.58 942.13 C111.97 815.14, 222.36 688.16, 483.78 387.42 M9.06 957.91 C166.53 776.76, 324 595.61, 484.05 411.5 M9.06 957.91 C198.55 739.94, 388.03 521.96, 484.05 411.5 M24.42 964.64 C205.04 756.86, 385.66 549.08, 483.66 436.34 M24.42 964.64 C139.73 831.98, 255.05 699.33, 483.66 436.34 M45.68 964.57 C168.07 823.77, 290.47 682.96, 483.93 460.42 M45.68 964.57 C152.18 842.05, 258.69 719.53, 483.93 460.42 M66.28 965.25 C192.87 819.63, 319.46 674, 484.19 484.5 M66.28 965.25 C183.03 830.95, 299.77 696.66, 484.19 484.5 M87.54 965.18 C217.28 815.94, 347.01 666.7, 483.8 509.34 M87.54 965.18 C233.38 797.42, 379.22 629.65, 483.8 509.34 M108.8 965.11 C187.43 874.66, 266.06 784.21, 484.07 533.42 M108.8 965.11 C212.61 845.7, 316.42 726.28, 484.07 533.42 M130.06 965.05 C216.13 866.03, 302.2 767.02, 483.68 558.26 M130.06 965.05 C267.43 807.02, 404.79 649, 483.68 558.26 M151.32 964.98 C219.22 886.87, 287.12 808.76, 483.94 582.34 M151.32 964.98 C270.73 827.62, 390.13 690.26, 483.94 582.34 M172.58 964.91 C294.64 824.5, 416.7 684.08, 484.21 606.42 M172.58 964.91 C288.48 831.58, 404.38 698.25, 484.21 606.42 M193.84 964.84 C273.45 873.26, 353.07 781.67, 483.82 631.26 M193.84 964.84 C308.56 832.87, 423.28 700.9, 483.82 631.26 M215.1 964.77 C304.82 861.57, 394.53 758.36, 484.09 655.34 M215.1 964.77 C279.44 890.76, 343.77 816.76, 484.09 655.34 M236.36 964.7 C311.92 877.78, 387.48 790.86, 483.7 680.17 M236.36 964.7 C288.01 905.28, 339.66 845.87, 483.7 680.17 M257.62 964.63 C309.02 905.5, 360.43 846.37, 483.96 704.26 M257.62 964.63 C340.03 869.83, 422.44 775.03, 483.96 704.26 M278.23 965.32 C335.43 899.51, 392.63 833.71, 483.57 729.09 M278.23 965.32 C355.04 876.95, 431.85 788.59, 483.57 729.09 M299.49 965.25 C341.41 917.02, 383.34 868.79, 483.84 753.17 M299.49 965.25 C368.38 886, 437.26 806.76, 483.84 753.17 M320.75 965.18 C365.22 914.02, 409.69 862.86, 484.11 777.26 M320.75 965.18 C356.67 923.85, 392.59 882.53, 484.11 777.26 M342.01 965.11 C382.59 918.42, 423.18 871.74, 483.72 802.09 M342.01 965.11 C391.33 908.37, 440.65 851.63, 483.72 802.09 M363.27 965.04 C394.88 928.68, 426.48 892.32, 483.98 826.17 M363.27 965.04 C390.79 933.38, 418.32 901.71, 483.98 826.17 M384.53 964.97 C419.48 924.77, 454.43 884.56, 483.59 851.01 M384.53 964.97 C406.37 939.85, 428.21 914.72, 483.59 851.01 M405.79 964.9 C430.74 936.2, 455.69 907.5, 483.86 875.09 M405.79 964.9 C424 943.96, 442.21 923.01, 483.86 875.09 M427.05 964.83 C448.3 940.39, 469.55 915.95, 484.13 899.17 M427.05 964.83 C448.59 940.06, 470.12 915.28, 484.13 899.17 M448.31 964.77 C455.91 956.02, 463.51 947.28, 483.74 924.01 M448.31 964.77 C456.23 955.66, 464.14 946.55, 483.74 924.01" stroke="#b2f2bb" stroke-width="2" fill="none"></path><path d="M32 0 C173.94 0, 315.88 0, 451.74 0 M32 0 C186.48 0, 340.97 0, 451.74 0 M451.74 0 C473.07 0, 483.74 10.67, 483.74 32 M451.74 0 C473.07 0, 483.74 10.67, 483.74 32 M483.74 32 C483.74 314.17, 483.74 596.34, 483.74 932.85 M483.74 32 C483.74 321.03, 483.74 610.05, 483.74 932.85 M483.74 932.85 C483.74 954.19, 473.07 964.85, 451.74 964.85 M483.74 932.85 C483.74 954.19, 473.07 964.85, 451.74 964.85 M451.74 964.85 C343.3 964.85, 234.87 964.85, 32 964.85 M451.74 964.85 C351.93 964.85, 252.12 964.85, 32 964.85 M32 964.85 C10.67 964.85, 0 954.19, 0 932.85 M32 964.85 C10.67 964.85, 0 954.19, 0 932.85 M0 932.85 C0 680.74, 0 428.62, 0 32 M0 932.85 C0 730.4, 0 527.95, 0 32 M0 32 C0 10.67, 10.67 0, 32 0 M0 32 C0 10.67, 10.67 0, 32 0" stroke="#2f9e44" stroke-width="4" fill="none"></path></g><g stroke-linecap="round" transform="translate(131.13735884759717 715.1590097469398) rotate(0 122.0167064836503 77.44580429229154)"><path d="M0 0 C0 0, 0 0, 0 0 M0 0 C0 0, 0 0, 0 0 M0.27 24.08 C7.96 15.23, 15.66 6.38, 21.26 -0.07 M0.27 24.08 C6.02 17.46, 11.78 10.84, 21.26 -0.07 M-0.12 48.92 C8.44 39.07, 16.99 29.23, 42.52 -0.14 M-0.12 48.92 C10.24 36.99, 20.61 25.07, 42.52 -0.14 M0.14 73 C25.33 44.03, 50.51 15.06, 63.78 -0.21 M0.14 73 C19.95 50.21, 39.76 27.42, 63.78 -0.21 M-0.25 97.84 C17.54 77.37, 35.33 56.91, 85.04 -0.28 M-0.25 97.84 C33.27 59.28, 66.78 20.73, 85.04 -0.28 M0.02 121.92 C30.82 86.48, 61.63 51.05, 106.3 -0.34 M0.02 121.92 C38.48 77.67, 76.94 33.43, 106.3 -0.34 M0.29 146 C41.73 98.33, 83.17 50.65, 126.91 0.34 M0.29 146 C39.25 101.18, 78.21 56.36, 126.91 0.34 M13.67 154.99 C52.66 110.14, 91.65 65.29, 148.17 0.27 M13.67 154.99 C66.41 94.32, 119.14 33.66, 148.17 0.27 M34.93 154.92 C71.42 112.95, 107.9 70.98, 169.43 0.2 M34.93 154.92 C75.96 107.72, 116.99 60.53, 169.43 0.2 M56.19 154.85 C101.08 103.22, 145.96 51.59, 190.69 0.13 M56.19 154.85 C99.38 105.17, 142.57 55.48, 190.69 0.13 M77.45 154.78 C124.76 100.35, 172.08 45.93, 211.95 0.06 M77.45 154.78 C125.29 99.75, 173.13 44.71, 211.95 0.06 M98.06 155.47 C132.66 115.66, 167.27 75.85, 233.21 0 M98.06 155.47 C127.96 121.07, 157.87 86.66, 233.21 0 M119.32 155.4 C154.02 115.47, 188.73 75.55, 244.63 11.25 M119.32 155.4 C154.85 114.52, 190.39 73.64, 244.63 11.25 M140.58 155.33 C181.1 108.71, 221.63 62.09, 244.89 35.33 M140.58 155.33 C173.75 117.17, 206.92 79.02, 244.89 35.33 M161.84 155.26 C190.93 121.8, 220.02 88.33, 244.5 60.17 M161.84 155.26 C192.06 120.49, 222.29 85.72, 244.5 60.17 M183.1 155.19 C205.27 129.69, 227.44 104.18, 244.77 84.25 M183.1 155.19 C207.14 127.54, 231.18 99.88, 244.77 84.25 M204.36 155.12 C215.5 142.3, 226.64 129.48, 244.38 109.08 M204.36 155.12 C217.65 139.84, 230.93 124.55, 244.38 109.08 M225.62 155.05 C231.22 148.61, 236.82 142.17, 244.64 133.17 M225.62 155.05 C232.63 146.99, 239.64 138.92, 244.64 133.17 M0.29 155.14 C0.29 155.14, 0.29 155.14, 0.29 155.14 M0.29 155.14 C0.29 155.14, 0.29 155.14, 0.29 155.14 M24.37 154.88 C19.17 150.35, 13.97 145.83, 0.22 133.88 M24.37 154.88 C16.19 147.77, 8.01 140.65, 0.22 133.88 M48.45 154.61 C35.01 142.92, 21.56 131.23, 0.15 112.62 M48.45 154.61 C33.77 141.85, 19.09 129.09, 0.15 112.62 M73.29 155 C55.6 139.62, 37.91 124.24, 0.08 91.36 M73.29 155 C48.51 133.46, 23.72 111.91, 0.08 91.36 M97.37 154.73 C64.27 125.96, 31.18 97.19, 0.01 70.1 M97.37 154.73 C74.46 134.82, 51.56 114.91, 0.01 70.1 M122.21 155.12 C74.64 113.77, 27.07 72.42, -0.06 48.84 M122.21 155.12 C78.32 116.97, 34.43 78.82, -0.06 48.84 M146.29 154.86 C112.68 125.64, 79.08 96.43, -0.13 27.58 M146.29 154.86 C101.96 116.32, 57.64 77.79, -0.13 27.58 M170.37 154.59 C107.18 99.66, 43.99 44.73, -0.19 6.32 M170.37 154.59 C111.65 103.55, 52.93 52.5, -0.19 6.32 M195.21 154.98 C153.64 118.85, 112.08 82.72, 17.09 0.15 M195.21 154.98 C141.41 108.21, 87.61 61.45, 17.09 0.15 M219.29 154.71 C148.82 93.46, 78.35 32.2, 41.18 -0.12 M219.29 154.71 C149.53 94.07, 79.76 33.43, 41.18 -0.12 M244.12 155.1 C202.16 118.62, 160.19 82.14, 65.26 -0.38 M244.12 155.1 C193.67 111.25, 143.22 67.39, 65.26 -0.38 M244.81 134.5 C187.39 84.58, 129.97 34.67, 90.09 0.01 M244.81 134.5 C190.4 87.2, 135.99 39.91, 90.09 0.01 M244.74 113.24 C203.83 77.67, 162.92 42.11, 114.18 -0.26 M244.74 113.24 C199.72 74.11, 154.71 34.97, 114.18 -0.26 M244.67 91.98 C212.93 64.38, 181.18 36.79, 139.01 0.13 M244.67 91.98 C220.6 71.06, 196.54 50.13, 139.01 0.13 M244.6 70.72 C216.37 46.17, 188.13 21.63, 163.09 -0.14 M244.6 70.72 C224.6 53.33, 204.61 35.95, 163.09 -0.14 M244.53 49.46 C228.25 35.3, 211.97 21.15, 187.18 -0.4 M244.53 49.46 C222.92 30.67, 201.32 11.89, 187.18 -0.4 M244.47 28.2 C237.73 22.34, 230.99 16.48, 212.01 -0.01 M244.47 28.2 C231.74 17.14, 219.02 6.08, 212.01 -0.01 M244.4 6.94 C241.75 4.64, 239.11 2.34, 236.09 -0.28 M244.4 6.94 C241.84 4.71, 239.28 2.49, 236.09 -0.28" stroke="#a5d8ff" stroke-width="2" fill="none"></path><path d="M0 0 C61.33 0, 122.65 0, 244.03 0 M0 0 C49.75 0, 99.51 0, 244.03 0 M244.03 0 C244.03 34.66, 244.03 69.32, 244.03 154.89 M244.03 0 C244.03 52.99, 244.03 105.99, 244.03 154.89 M244.03 154.89 C184.42 154.89, 124.8 154.89, 0 154.89 M244.03 154.89 C187.08 154.89, 130.12 154.89, 0 154.89 M0 154.89 C0 114.88, 0 74.86, 0 0 M0 154.89 C0 118.06, 0 81.23, 0 0" stroke="#000000" stroke-width="4" fill="none"></path></g><g transform="translate(168.1110965812477 751.2048140392317) rotate(0 85.04296875 41.40000000000009)"><text x="85.04296875" y="0" font-family="Helvetica, Segoe UI Emoji" font-size="36px" fill="#000000" text-anchor="middle" style="white-space: pre;" direction="ltr" dominant-baseline="text-before-edge">Host Node</text><text x="85.04296875" y="41.4" font-family="Helvetica, Segoe UI Emoji" font-size="36px" fill="#000000" text-anchor="middle" style="white-space: pre;" direction="ltr" dominant-baseline="text-before-edge">1</text></g><g transform="translate(162.54594999559777 78.13298275720808) rotate(0 92.0654296875 41.40000000000009)"><text x="92.0654296875" y="0" font-family="Helvetica, Segoe UI Emoji" font-size="36px" fill="#1971c2" text-anchor="middle" style="white-space: pre;" direction="ltr" dominant-baseline="text-before-edge">Skypier </text><text x="92.0654296875" y="41.4" font-family="Helvetica, Segoe UI Emoji" font-size="36px" fill="#1971c2" text-anchor="middle" style="white-space: pre;" direction="ltr" dominant-baseline="text-before-edge">Node Index</text></g><g stroke-linecap="round" transform="translate(132.3531637313272 476.0153462660928) rotate(0 122.0167064836503 77.44580429229154)"><path d="M0 0 C0 0, 0 0, 0 0 M0 0 C0 0, 0 0, 0 0 M0.27 24.08 C6.32 17.12, 12.38 10.15, 21.26 -0.07 M0.27 24.08 C8.46 14.65, 16.66 5.23, 21.26 -0.07 M-0.12 48.92 C8.55 38.95, 17.21 28.97, 42.52 -0.14 M-0.12 48.92 C15.6 30.83, 31.32 12.75, 42.52 -0.14 M0.14 73 C24.36 45.14, 48.57 17.29, 63.78 -0.21 M0.14 73 C18.28 52.13, 36.42 31.26, 63.78 -0.21 M-0.25 97.84 C27.57 65.84, 55.38 33.84, 85.04 -0.28 M-0.25 97.84 C22.82 71.3, 45.88 44.77, 85.04 -0.28 M0.02 121.92 C38.11 78.1, 76.2 34.28, 106.3 -0.34 M0.02 121.92 C31.52 85.68, 63.02 49.45, 106.3 -0.34 M0.29 146 C32.15 109.34, 64.02 72.68, 126.91 0.34 M0.29 146 C29.61 112.26, 58.94 78.53, 126.91 0.34 M13.67 154.99 C51.35 111.64, 89.03 68.3, 148.17 0.27 M13.67 154.99 C53.77 108.86, 93.88 62.72, 148.17 0.27 M34.93 154.92 C70.11 114.45, 105.28 73.99, 169.43 0.2 M34.93 154.92 C79 104.23, 123.06 53.53, 169.43 0.2 M56.19 154.85 C83.21 123.77, 110.22 92.7, 190.69 0.13 M56.19 154.85 C85.44 121.21, 114.68 87.56, 190.69 0.13 M77.45 154.78 C122.4 103.08, 167.34 51.37, 211.95 0.06 M77.45 154.78 C129.51 94.89, 181.57 35.01, 211.95 0.06 M98.06 155.47 C148.39 97.57, 198.72 39.67, 233.21 0 M98.06 155.47 C129.73 119.03, 161.4 82.6, 233.21 0 M119.32 155.4 C162.54 105.67, 205.77 55.95, 244.63 11.25 M119.32 155.4 C168.39 98.95, 217.46 42.5, 244.63 11.25 M140.58 155.33 C165.99 126.1, 191.39 96.87, 244.89 35.33 M140.58 155.33 C180.43 109.48, 220.29 63.63, 244.89 35.33 M161.84 155.26 C183.83 129.96, 205.82 104.66, 244.5 60.17 M161.84 155.26 C184.66 129.01, 207.48 102.76, 244.5 60.17 M183.1 155.19 C199.13 136.74, 215.17 118.3, 244.77 84.25 M183.1 155.19 C204.5 130.57, 225.91 105.95, 244.77 84.25 M204.36 155.12 C219.03 138.24, 233.7 121.37, 244.38 109.08 M204.36 155.12 C217.5 140.01, 230.64 124.89, 244.38 109.08 M225.62 155.05 C230.65 149.27, 235.67 143.48, 244.64 133.17 M225.62 155.05 C230.73 149.17, 235.85 143.29, 244.64 133.17 M0.29 155.14 C0.29 155.14, 0.29 155.14, 0.29 155.14 M0.29 155.14 C0.29 155.14, 0.29 155.14, 0.29 155.14 M24.37 154.88 C17.23 148.67, 10.09 142.46, 0.22 133.88 M24.37 154.88 C16.16 147.74, 7.95 140.61, 0.22 133.88 M48.45 154.61 C35.57 143.41, 22.69 132.21, 0.15 112.62 M48.45 154.61 C36.19 143.95, 23.93 133.3, 0.15 112.62 M73.29 155 C44.69 130.14, 16.09 105.28, 0.08 91.36 M73.29 155 C58.2 141.88, 43.11 128.77, 0.08 91.36 M97.37 154.73 C69.25 130.29, 41.13 105.85, 0.01 70.1 M97.37 154.73 C71.23 132.01, 45.08 109.28, 0.01 70.1 M122.21 155.12 C75.47 114.5, 28.74 73.87, -0.06 48.84 M122.21 155.12 C77.42 116.19, 32.64 77.26, -0.06 48.84 M146.29 154.86 C97.17 112.16, 48.04 69.45, -0.13 27.58 M146.29 154.86 C97.37 112.33, 48.46 69.81, -0.13 27.58 M170.37 154.59 C119.12 110.04, 67.86 65.48, -0.19 6.32 M170.37 154.59 C106.84 99.36, 43.3 44.13, -0.19 6.32 M195.21 154.98 C131.05 99.21, 66.9 43.44, 17.09 0.15 M195.21 154.98 C141.05 107.9, 86.89 60.82, 17.09 0.15 M219.29 154.71 C152.97 97.07, 86.65 39.42, 41.18 -0.12 M219.29 154.71 C178.36 119.13, 137.43 83.55, 41.18 -0.12 M244.12 155.1 C205.98 121.95, 167.84 88.79, 65.26 -0.38 M244.12 155.1 C175.23 95.21, 106.33 35.32, 65.26 -0.38 M244.81 134.5 C210.54 104.71, 176.27 74.91, 90.09 0.01 M244.81 134.5 C183.46 81.17, 122.12 27.85, 90.09 0.01 M244.74 113.24 C213.16 85.79, 181.59 58.34, 114.18 -0.26 M244.74 113.24 C200.72 74.97, 156.69 36.7, 114.18 -0.26 M244.67 91.98 C216.28 67.3, 187.89 42.62, 139.01 0.13 M244.67 91.98 C204.1 56.71, 163.53 21.45, 139.01 0.13 M244.6 70.72 C220.95 50.16, 197.31 29.6, 163.09 -0.14 M244.6 70.72 C222.34 51.37, 200.09 32.02, 163.09 -0.14 M244.53 49.46 C225.52 32.93, 206.51 16.41, 187.18 -0.4 M244.53 49.46 C224.08 31.68, 203.62 13.89, 187.18 -0.4 M244.47 28.2 C234.76 19.76, 225.06 11.33, 212.01 -0.01 M244.47 28.2 C236.06 20.9, 227.66 13.59, 212.01 -0.01 M244.4 6.94 C242.54 5.32, 240.67 3.7, 236.09 -0.28 M244.4 6.94 C241.64 4.54, 238.88 2.14, 236.09 -0.28" stroke="#a5d8ff" stroke-width="2" fill="none"></path><path d="M0 0 C70.36 0, 140.73 0, 244.03 0 M0 0 C88.38 0, 176.75 0, 244.03 0 M244.03 0 C244.03 48.52, 244.03 97.03, 244.03 154.89 M244.03 0 C244.03 49.69, 244.03 99.39, 244.03 154.89 M244.03 154.89 C165.01 154.89, 86 154.89, 0 154.89 M244.03 154.89 C193.49 154.89, 142.94 154.89, 0 154.89 M0 154.89 C0 120.69, 0 86.5, 0 0 M0 154.89 C0 94.26, 0 33.62, 0 0" stroke="#000000" stroke-width="4" fill="none"></path></g><g transform="translate(169.3269014649777 512.0611505583847) rotate(0 85.04296875 41.40000000000009)"><text x="85.04296875" y="0" font-family="Helvetica, Segoe UI Emoji" font-size="36px" fill="#000000" text-anchor="middle" style="white-space: pre;" direction="ltr" dominant-baseline="text-before-edge">Host Node</text><text x="85.04296875" y="41.4" font-family="Helvetica, Segoe UI Emoji" font-size="36px" fill="#000000" text-anchor="middle" style="white-space: pre;" direction="ltr" dominant-baseline="text-before-edge">2</text></g><g stroke-linecap="round" transform="translate(130.9723245472851 222.3002925140263) rotate(0 122.0167064836503 77.44580429229154)"><path d="M0 0 C0 0, 0 0, 0 0 M0 0 C0 0, 0 0, 0 0 M0.27 24.08 C7.17 16.14, 14.07 8.2, 21.26 -0.07 M0.27 24.08 C5.97 17.53, 11.67 10.97, 21.26 -0.07 M-0.12 48.92 C13.85 32.84, 27.83 16.76, 42.52 -0.14 M-0.12 48.92 C9.69 37.63, 19.51 26.34, 42.52 -0.14 M0.14 73 C18.34 52.06, 36.54 31.12, 63.78 -0.21 M0.14 73 C15.37 55.49, 30.59 37.97, 63.78 -0.21 M-0.25 97.84 C33.38 59.15, 67 20.47, 85.04 -0.28 M-0.25 97.84 C24.36 69.53, 48.97 41.22, 85.04 -0.28 M0.02 121.92 C28.51 89.14, 57.01 56.36, 106.3 -0.34 M0.02 121.92 C42.13 73.48, 84.24 25.04, 106.3 -0.34 M0.29 146 C49.88 88.95, 99.47 31.9, 126.91 0.34 M0.29 146 C33.83 107.42, 67.37 68.83, 126.91 0.34 M13.67 154.99 C62.27 99.08, 110.87 43.17, 148.17 0.27 M13.67 154.99 C59.15 102.67, 104.62 50.36, 148.17 0.27 M34.93 154.92 C79.27 103.91, 123.61 52.91, 169.43 0.2 M34.93 154.92 C69.43 115.23, 103.93 75.55, 169.43 0.2 M56.19 154.85 C89.67 116.34, 123.14 77.83, 190.69 0.13 M56.19 154.85 C98.41 106.28, 140.63 57.72, 190.69 0.13 M77.45 154.78 C119.8 106.06, 162.15 57.35, 211.95 0.06 M77.45 154.78 C119.66 106.23, 161.86 57.68, 211.95 0.06 M98.06 155.47 C126.54 122.7, 155.03 89.93, 233.21 0 M98.06 155.47 C128.53 120.41, 159.01 85.35, 233.21 0 M119.32 155.4 C163.27 104.83, 207.23 54.27, 244.63 11.25 M119.32 155.4 C149.44 120.75, 179.56 86.1, 244.63 11.25 M140.58 155.33 C174.36 116.46, 208.15 77.6, 244.89 35.33 M140.58 155.33 C164.37 127.96, 188.16 100.59, 244.89 35.33 M161.84 155.26 C189.75 123.15, 217.66 91.04, 244.5 60.17 M161.84 155.26 C194.32 117.9, 226.79 80.54, 244.5 60.17 M183.1 155.19 C199.26 136.6, 215.41 118.02, 244.77 84.25 M183.1 155.19 C203.44 131.79, 223.78 108.39, 244.77 84.25 M204.36 155.12 C215.28 142.56, 226.19 130, 244.38 109.08 M204.36 155.12 C215.61 142.18, 226.86 129.23, 244.38 109.08 M225.62 155.05 C231.25 148.58, 236.87 142.11, 244.64 133.17 M225.62 155.05 C233.08 146.47, 240.54 137.88, 244.64 133.17 M0.29 155.14 C0.29 155.14, 0.29 155.14, 0.29 155.14 M0.29 155.14 C0.29 155.14, 0.29 155.14, 0.29 155.14 M24.37 154.88 C17.3 148.73, 10.23 142.58, 0.22 133.88 M24.37 154.88 C16.41 147.95, 8.44 141.03, 0.22 133.88 M48.45 154.61 C35.85 143.65, 23.24 132.69, 0.15 112.62 M48.45 154.61 C35.41 143.28, 22.38 131.94, 0.15 112.62 M73.29 155 C50.06 134.81, 26.83 114.61, 0.08 91.36 M73.29 155 C50.6 135.27, 27.91 115.55, 0.08 91.36 M97.37 154.73 C59.12 121.49, 20.88 88.24, 0.01 70.1 M97.37 154.73 C62.74 124.63, 28.12 94.53, 0.01 70.1 M122.21 155.12 C93.99 130.59, 65.77 106.07, -0.06 48.84 M122.21 155.12 C78.97 117.54, 35.73 79.95, -0.06 48.84 M146.29 154.86 C112.53 125.51, 78.78 96.17, -0.13 27.58 M146.29 154.86 C95.39 110.61, 44.49 66.36, -0.13 27.58 M170.37 154.59 C120.69 111.4, 71.01 68.22, -0.19 6.32 M170.37 154.59 C113.28 104.97, 56.2 55.34, -0.19 6.32 M195.21 154.98 C149.66 115.39, 104.12 75.8, 17.09 0.15 M195.21 154.98 C137.97 105.22, 80.73 55.46, 17.09 0.15 M219.29 154.71 C156.27 99.93, 93.25 45.15, 41.18 -0.12 M219.29 154.71 C151.59 95.86, 83.89 37.01, 41.18 -0.12 M244.12 155.1 C199.99 116.74, 155.86 78.37, 65.26 -0.38 M244.12 155.1 C189.51 107.62, 134.89 60.14, 65.26 -0.38 M244.81 134.5 C202.98 98.14, 161.16 61.78, 90.09 0.01 M244.81 134.5 C203.04 98.19, 161.27 61.88, 90.09 0.01 M244.74 113.24 C208.31 81.57, 171.87 49.9, 114.18 -0.26 M244.74 113.24 C208.01 81.31, 171.28 49.38, 114.18 -0.26 M244.67 91.98 C214.07 65.38, 183.47 38.78, 139.01 0.13 M244.67 91.98 C219.57 70.16, 194.46 48.33, 139.01 0.13 M244.6 70.72 C218.13 47.7, 191.65 24.69, 163.09 -0.14 M244.6 70.72 C213.3 43.51, 181.99 16.29, 163.09 -0.14 M244.53 49.46 C229.78 36.63, 215.02 23.8, 187.18 -0.4 M244.53 49.46 C223.35 31.04, 202.17 12.63, 187.18 -0.4 M244.47 28.2 C236.25 21.06, 228.04 13.92, 212.01 -0.01 M244.47 28.2 C234.68 19.69, 224.89 11.19, 212.01 -0.01 M244.4 6.94 C242.6 5.38, 240.81 3.82, 236.09 -0.28 M244.4 6.94 C242.7 5.46, 241 3.98, 236.09 -0.28" stroke="#a5d8ff" stroke-width="2" fill="none"></path><path d="M0 0 C65.79 0, 131.58 0, 244.03 0 M0 0 C69.88 0, 139.76 0, 244.03 0 M244.03 0 C244.03 50.83, 244.03 101.65, 244.03 154.89 M244.03 0 C244.03 59.82, 244.03 119.64, 244.03 154.89 M244.03 154.89 C187.19 154.89, 130.34 154.89, 0 154.89 M244.03 154.89 C184.6 154.89, 125.16 154.89, 0 154.89 M0 154.89 C0 107.34, 0 59.79, 0 0 M0 154.89 C0 100.63, 0 46.37, 0 0" stroke="#000000" stroke-width="4" fill="none"></path></g><g transform="translate(167.94606228093562 258.3460968063182) rotate(0 85.04296875 41.40000000000009)"><text x="85.04296875" y="0" font-family="Helvetica, Segoe UI Emoji" font-size="36px" fill="#000000" text-anchor="middle" style="white-space: pre;" direction="ltr" dominant-baseline="text-before-edge">Host Node</text><text x="85.04296875" y="41.4" font-family="Helvetica, Segoe UI Emoji" font-size="36px" fill="#000000" text-anchor="middle" style="white-space: pre;" direction="ltr" dominant-baseline="text-before-edge">3</text></g></svg>
