<svg width="500" height="500" version="1.1" viewBox="0 0 132.29 132.29" xmlns="http://www.w3.org/2000/svg">
 <g>
  <path d="m67.155 28.43c-12.475 0.03068-20.501 5.6044-24.843 11.319-0.95043 1.2506-1.7231 2.4924-2.3769 3.6854 0.85242-0.06155 1.6896-0.10378 2.4961-0.10608 2.6221-0.0076 4.9973 0.30292 7.1281 0.92792 3.0978-3.8053 8.0201-7.3395 17.617-7.3632 8.3887-0.02063 12.756 3.8592 15.65 8.0062 0.01831 0.02625 0.03269 0.05195 0.0509 0.07819 2.9853-0.56814 5.9191-0.96993 8.7258-0.95908 0.17375 6.71e-4 0.34503 0.0092 0.51781 0.01312-0.64426-1.2786-1.4116-2.6229-2.3551-3.9747-3.9776-5.6989-11.385-11.654-22.611-11.627zm-24.375 18.376c-1.556 0.02879-3.0911 0.19458-4.6325 0.46478l5.5e-4 -0.0028c-3.28e-4 8.59e-4 -7.62e-4 0.0019-1e-3 0.0028-6.6442 1.058-12.033 4.1579-15.726 8.4693-3.9752 4.6408-5.9426 10.119-6.2564 16.094 2.6385 1.8411 5.3722 3.1134 8.449 4.2415-0.04042-0.39422-0.08391-0.78798-0.10062-1.1838-0.21626-5.1294 1.2897-10.092 4.3356-13.648 3.0458-3.5558 7.5838-5.9641 14.634-5.9103 7.0635 0.05392 10.089 2.1847 12.61 5.7638 0.56793 0.80615 1.0738 1.7395 1.5567 2.728-9.5e-5 9.1e-5 -4.65e-4 -9.3e-5 -5.5e-4 0 8.5e-5 1.38e-4 -8.5e-5 4.06e-4 0 5.46e-4 1.6054 2.7942 2.3817 5.7385 3.1102 8.8302 8.4e-5 -9.2e-5 4.44e-4 9e-5 5.39e-4 0 0.35405 1.2235 0.72976 2.3271 1.0827 3.6105 1.2563 4.5689 2.5939 9.4412 4.9955 13.927-1.17e-4 9.1e-5 -4.34e-4 -9.2e-5 -5.5e-4 0 7.3e-5 1.43e-4 -6.5e-5 4.02e-4 0 5.47e-4 1.3403 2.634 3.0761 4.7518 5.0136 6.6064 4.2953 4.1932 10.414 7.1283 18.723 7.4441 8.8213 0.33523 16.025-3.323 20.565-8.868 3.7622-4.5949 5.7522-10.322 6.3221-16.197-2.4512-1.2411-5.0432-2.2993-8.2298-2.5847-0.18064 5.0488-1.7991 9.9534-4.6385 13.421-3.0331 3.7044-7.2344 6.0175-13.696 5.772-6.3265-0.24043-9.994-1.9008-12.699-4.4433h-5.4e-4c-2.5294-2.2178-3.6326-4.7347-4.8135-7.2352-1.3105-3.0095-2.3775-6.43-3.3825-10.085-0.72305-2.6296-1.4767-5.3454-2.3622-8.0226h-5.39e-4c-0.9515-2.8331-2.2713-5.4679-3.6352-8.0789h5.39e-4v-5.46e-4c-0.33976-0.56324-0.61076-1.1559-0.99407-1.7-3.2269-4.5805-8.4081-8.0619-15.472-9.0593-1.6248-0.27704-3.2017-0.38529-4.7577-0.35651zm48.396 0.05905c-2.2452-9.58e-4 -4.4912 0.14135-6.7404 0.69771-7.725 1.4409-13.631 4.8731-18.598 8.8434l3.9123 7.6803c5.5083-4.8214 11.48-8.3674 21.218-8.7553 0.39452-0.0157 0.78119-0.02139 1.1592-0.0175 5.6702 0.05851 9.5116 2.2927 12.367 5.7731 0.52141 0.63554 0.98405 1.3349 1.4096 2.0702 3.1882 0.14707 6.4062 0.37422 9.7932 1.0591-1.0674-3.0678-2.581-5.9628-4.6598-8.4967-4.0413-4.926-10.166-8.3688-17.617-8.8155-0.74824-0.02206-1.4968-0.0385-2.2452-0.03883zm-83.755 18.214-7.4211 4.0633s3.1589 5.7996 9.4137 10.792c2.3423 1.8694 5.3467 3.5055 8.6547 4.8545 0 0 3.6061 1.5194 5.4816 1.8957 1.8756 0.37635 5.135 0.57414 5.135 0.57414l0.0032 0.0033c-7.62e-4 -1e-3 -1e-3 -0.0022-0.0021-0.0033 2.9334 0.13911 6.0374-0.05477 9.3557-0.81418 9.3073-2.13 15.718-7.1409 21.213-12.351-0.70413-2.9495-1.8929-5.7683-3.3852-8.5054-5.8011 5.7304-11.268 10.675-19.717 12.608-4.3294 0.99082-7.9859 0.79348-11.236 0.0618-1.59e-4 -9.16e-4 -3.81e-4 -0.0018-5.39e-4 -0.0028v0.0028c-3.35-0.57648-6.1193-1.9619-8.8182-3.9905-0.45472-0.3258-0.98054-0.60971-1.4053-0.94869-4.8704-3.8872-7.2708-8.2397-7.2708-8.2397zm97.292 0.8109c-2.5913 0.06709-5.3237 0.38938-8.2856 1.1997-10.433 2.854-16.18 9.4004-21.355 15.159 0.98065 2.8225 2.6909 5.2384 4.6062 7.5398 5.9308-6.4038 10.171-12.124 18.983-14.535 2.4319-0.66528 4.6432-1.0163 6.6584-1.1226 0.17696-0.0093 0.35083-0.01431 0.52165-0.0164 1.1956-0.01466 2.2511 0.13439 3.3278 0.25864 4.3012 0.43055 6.46 1.5913 8.4426 2.8122 0.38721 0.23504 0.84872 0.43495 1.2068 0.68022 4.2317 2.8985 6.0738 6.2226 6.0738 6.2226l7.3987-4.1125s-2.8259-5.0765-8.6902-9.0932c-1.9082-1.307-4.3081-2.3964-6.9214-3.3147-3.0661-0.82156-6.2048-1.3813-9.4192-1.6683-1.7e-4 -5e-6 -3.5e-4 6e-6 -5.3e-4 0-0.8356-0.02574-1.6839-0.03164-2.5476-0.0093zm-85.012 22.534c4.5513 8.6596 13.27 15.414 25.563 15.821 10.782 0.35639 18.43-2.239 24.318-5.9213-1.6578-1.9996-3.3203-3.9899-4.5204-6.8858-4.4558 2.8755-10.163 4.6595-19.516 4.3503-6.294-0.20805-11.052-2.4358-14.456-5.7354-3.9366 0.09435-7.7944-0.15039-11.389-1.6284z" color="#000000" fill="#5df" stroke-linejoin="round" stroke-width="1.0581" style="-inkscape-stroke:none;paint-order:stroke fill markers"/>
 </g>
</svg>
