<?xml version="1.0" encoding="UTF-8" standalone="no"?>
<svg
   width="500"
   height="500"
   version="1.1"
   viewBox="0 0 132.29 132.29"
   id="svg32745"
   sodipodi:docname="skypier_baseline.svg"
   inkscape:version="1.1.2 (0a00cf5339, 2022-02-04)"
   xmlns:inkscape="http://www.inkscape.org/namespaces/inkscape"
   xmlns:sodipodi="http://sodipodi.sourceforge.net/DTD/sodipodi-0.dtd"
   xmlns="http://www.w3.org/2000/svg"
   xmlns:svg="http://www.w3.org/2000/svg">
  <defs
     id="defs32749" />
  <sodipodi:namedview
     id="namedview32747"
     pagecolor="#505050"
     bordercolor="#eeeeee"
     borderopacity="1"
     inkscape:pageshadow="0"
     inkscape:pageopacity="0"
     inkscape:pagecheckerboard="0"
     showgrid="false"
     inkscape:zoom="0.745"
     inkscape:cx="178.52349"
     inkscape:cy="363.08725"
     inkscape:window-width="1920"
     inkscape:window-height="1016"
     inkscape:window-x="1920"
     inkscape:window-y="27"
     inkscape:window-maximized="1"
     inkscape:current-layer="svg32745" />
  <g
     fill="#fff"
     opacity=".34099"
     stroke-width="2.0501"
     aria-label="Skypier"
     id="g32741">
    <path
       transform="scale(.26458)"
       d="m72.148 353.28c-1.9837 0-4.0079 0.53685-6.0742 1.6113-2.0663 1.0745-3.8019 2.1905-5.207 3.3477-4.7938 3.9673-7.48 9.5475-8.0586 16.738-0.16529 0.74387-0.24805 1.4866-0.24805 2.2305v2.3555c0 1.901 0.12313 3.8445 0.37109 5.8281 0.33061 1.901 0.78667 3.8021 1.3652 5.7031 0.66122 1.8184 1.4463 3.554 2.3555 5.207 0.99183 1.5704 2.1906 2.9327 3.5957 4.0898 2.3969 1.901 5.0408 3.1825 7.9336 3.8438 2.9755 0.6612 5.7444 0.99219 8.3066 0.99219h14.01c2.0663 0 3.8423 0.20586 5.3301 0.61914 1.5704 0.33059 2.7692 0.95214 3.5957 1.8613 0.99182 1.1571 1.571 2.479 1.7363 3.9668 0.16529 1.4051 0.24804 2.7694 0.24804 4.0918 0 0.90919-0.04235 1.777-0.125 2.6035-0.08264 0.82651-0.32892 1.6944-0.74218 2.6035-0.41327 0.99184-1.0752 2.1059-1.9844 3.3457-0.90918 1.1571-1.9829 1.7363-3.2227 1.7363h-39.922c-0.82652 0-1.2402 0.4137-1.2402 1.2402v13.637c0 0.82651 0.41371 1.2402 1.2402 1.2402h45.129c1.8183 0 3.7195-0.53684 5.7031-1.6113 2.0663-1.1571 3.8019-2.3136 5.207-3.4707 4.6285-4.05 7.2724-9.8361 7.9336-17.357 0.16531-0.66123 0.24804-1.3636 0.24804-2.1074v-2.6035c0-1.901-0.12313-3.8848-0.37109-5.9512-0.24797-2.0663-0.70403-4.0502-1.3652-5.9512-0.57856-1.901-1.3636-3.679-2.3555-5.332-0.90918-1.653-2.0656-3.0577-3.4707-4.2148-2.3969-1.9836-5.0004-3.3056-7.8105-3.9668-2.8102-0.74388-5.4964-1.1152-8.0586-1.1152h-13.885c-1.901 0-3.679-0.08275-5.332-0.24805-1.5704-0.16529-2.8096-0.70213-3.7188-1.6113-0.99183-1.0745-1.571-2.3156-1.7363-3.7207-0.16532-1.4051-0.24805-2.7694-0.24805-4.0918 0-0.82654 0.042353-1.652 0.125-2.4785s0.32892-1.654 0.74219-2.4805c0.41326-0.90917 1.0752-1.8597 1.9844-2.8516 0.99183-1.0745 2.0655-1.6113 3.2227-1.6113h35.83c0.82652 0 1.2402-0.41371 1.2402-1.2402v-13.637c0-0.82652-0.41371-1.2402-1.2402-1.2402h-41.037zm57.898 0c-0.82653 0-1.2402 0.41372-1.2402 1.2402v73.52 0.24805 12.645c0 0.82651 0.41371 1.2402 1.2402 1.2402h12.646c0.82652 0 1.2383-0.41372 1.2383-1.2402v-86.412c0-0.82652-0.41176-1.2402-1.2383-1.2402h-12.646zm200.72 0c-0.82652 0-1.2402 0.41372-1.2402 1.2402v12.646c0 0.82653 0.41372 1.2383 1.2402 1.2383h12.646c0.82653 0 1.2383-0.41175 1.2383-1.2383v-12.646c0-0.82652-0.41175-1.2402-1.2383-1.2402h-12.646zm-159.93 24.301c-0.90918 0-1.6115 0.33098-2.1074 0.99219l-20.084 22.811c-0.66122 0.82652-1.2 1.7367-1.6133 2.7285-0.41326 0.90918-0.61914 1.6942-0.61914 2.3555 0 0.90917 0.20588 1.8597 0.61914 2.8516 0.41326 0.90916 0.90972 1.7346 1.4883 2.4785l21.572 29.26c0.57856 0.74387 1.2809 1.1152 2.1074 1.1152h15.994c0.66122 0 0.78435-0.28861 0.37109-0.86719l-24.547-33.35c-0.1653-0.16529-0.37313-0.41352-0.6211-0.74414-0.16529-0.33061-0.24804-0.57884-0.24804-0.74414 0-0.16529 0.08275-0.37312 0.24804-0.62109 0.24797-0.24794 0.4558-0.4538 0.6211-0.61914l23.184-26.408c0.33061-0.33062 0.45374-0.61923 0.3711-0.86719 0-0.24797-0.20588-0.37109-0.61915-0.3711h-16.117zm19.588 0c-0.57857 0-0.86719 0.28863-0.86719 0.86719 0 0.24794 0.0404 0.41342 0.12305 0.4961l20.086 59.137c0.41327 1.2398 0.99051 2.1499 1.7344 2.7285 0.82652 0.49591 1.6116 0.82689 2.3555 0.99219 0.74387 0.16529 1.4058 0.24805 1.9844 0.24805 0.57857 0 0.86719 0.08275 0.86719 0.24804v0.12305l-8.6777 22.936v0.37304c0 0.33061 0.20588 0.4961 0.61914 0.4961h14.754c1.0745 0 1.7364-0.33097 1.9844-0.99219l33.102-86.289c0.08265-0.1653 0.125-0.33078 0.125-0.4961 0-0.57856-0.41371-0.86718-1.2402-0.86719h-14.877c-0.74387 0-1.1999 0.24823-1.3652 0.74415l-15.744 41.531c-0.08265 0.24794-0.24813 0.66163-0.4961 1.2402-0.16529 0.49591-0.37312 1.0328-0.62109 1.6113-0.24796 0.49593-0.53659 0.95197-0.86719 1.3652-0.33061 0.41326-0.66157 0.61914-0.99218 0.61914s-0.65963-0.20588-0.99024-0.61914c-0.33061-0.4959-0.66158-0.99235-0.99219-1.4883-0.24796-0.57855-0.45579-1.1154-0.62109-1.6113-0.16529-0.57855-0.28842-0.99227-0.37109-1.2402l-13.143-41.285c-0.24797-0.57856-0.74247-0.86719-1.4863-0.86719h-14.383zm76.246 0c-0.82652 0-1.2383 0.41175-1.2383 1.2383v85.422c0 0.82652 0.41176 1.2402 1.2383 1.2402h12.646c0.82652 0 1.2402-0.41372 1.2402-1.2402v-20.828c0-0.82652 0.41371-1.2402 1.2402-1.2402h13.018c4.1326 0 7.8925-0.66 11.281-1.9824 3.4714-1.3224 6.4058-3.3486 8.8027-6.0762 2.4796-2.7275 4.3807-6.1988 5.7031-10.414 1.4051-4.2153 2.1074-9.2567 2.1074-15.125 0-3.9673-0.41371-7.81-1.2402-11.529-0.82652-3.7194-2.2312-7.0271-4.2148-9.9199-1.901-2.8928-4.5045-5.2057-7.8106-6.9414-3.2234-1.7357-7.2739-2.6035-12.15-2.6035h-30.623zm64.098 0c-0.82652 0-1.2402 0.41175-1.2402 1.2383v62.113c0 0.82651 0.41372 1.2402 1.2402 1.2402h12.646c0.82653 0 1.2383-0.41372 1.2383-1.2402v-62.113c0-0.82654-0.41175-1.2383-1.2383-1.2383h-12.646zm55.418 0c-4.1326 0-8.2658 0.53686-12.398 1.6113-4.05 0.99184-7.7271 2.7679-11.033 5.3301-3.2234 2.5622-5.8692 6.0335-7.9356 10.414-1.9837 4.2979-2.9746 9.7531-2.9746 16.365 0 5.4551 0.5792 10.125 1.7363 14.01 1.2398 3.8846 3.264 7.1096 6.0742 9.6719 2.8928 2.4796 6.6527 4.298 11.281 5.4551 4.7112 1.1571 10.54 1.7344 17.482 1.7344h20.951c0.82652 0 1.2402-0.41372 1.2402-1.2402v-12.645c0-0.82652-0.41372-1.2402-1.2402-1.2402h-29.506c-1.7357 0-3.3886-0.20588-4.959-0.61914-1.5704-0.4959-2.9347-1.1175-4.0918-1.8613-1.0745-0.82651-1.9423-1.7347-2.6035-2.7266-0.66121-1.0745-0.99218-2.2309-0.99218-3.4707 0-0.82652 0.41371-1.2402 1.2402-1.2402h45.871c0.82652 0 1.2402-0.41369 1.2402-1.2402v-12.895c0-3.8847-0.5792-7.3963-1.7363-10.537-1.0745-3.1408-2.8101-5.7866-5.207-7.9356-2.3969-2.2316-5.4545-3.9249-9.1738-5.082-3.7194-1.2398-8.1412-1.8594-13.266-1.8594zm54.551 0c-2.2316 0-4.3386 0.45411-6.3223 1.3633-1.9836 0.82651-3.7193 1.983-5.207 3.4707s-2.6865 3.2234-3.5957 5.207c-0.82652 1.9837-1.2402 4.0503-1.2402 6.1992v47.111c0 0.82651 0.41372 1.2402 1.2402 1.2402h13.885c0.82652 0 1.2402-0.41372 1.2402-1.2402v-42.771c0-0.4959 0.12315-1.0328 0.37109-1.6113 0.24794-0.66123 0.57891-1.2404 0.99219-1.7363 0.4959-0.57858 1.0328-1.075 1.6113-1.4883 0.57855-0.41326 1.2405-0.61915 1.9844-0.61915h11.902c0.82651 1e-5 1.2383-0.41371 1.2383-1.2402v-12.646c0-0.82654-0.41177-1.2383-1.2383-1.2383h-16.861zm-55.666 13.514c5.2071 0 9.2576 0.95056 12.15 2.8516 2.8928 1.8184 4.3379 4.2967 4.3379 7.4375 0 0.82652-0.41371 1.2402-1.2402 1.2402h-31.861c-0.82652 0-1.2402-0.41371-1.2402-1.2402 0-1.5704 0.61959-2.9751 1.8594-4.2148 1.2398-1.3224 2.7695-2.3961 4.5879-3.2227 1.901-0.90916 3.8425-1.6115 5.8262-2.1074 2.0663-0.49593 3.927-0.74414 5.5801-0.74414zm-103.27 1.6113h16.365c1.2398 0 2.4366 0.41372 3.5938 1.2402 1.2398 0.74387 2.3154 1.6944 3.2246 2.8516 0.99182 1.1571 1.7769 2.4791 2.3555 3.9668 0.66121 1.4877 0.99218 2.8924 0.99218 4.2148v9.5469c0 1.4051-0.33097 2.8521-0.99218 4.3398-0.57857 1.4877-1.3636 2.8501-2.3555 4.0898-0.90918 1.1571-1.9848 2.15-3.2246 2.9766-1.1571 0.74387-2.354 1.1152-3.5938 1.1152h-16.365c-0.82653 0-1.2402-0.41372-1.2402-1.2402v-31.861c0-0.82652 0.41371-1.2402 1.2402-1.2402z"
       stroke-width="7.7487"
       id="path32739" />
  </g>
  <path
     d="m68.607 16.436c-11.79 0.029-19.374 5.2965-23.478 10.697-0.89822 1.1819-1.6284 2.3555-2.2464 3.4829 0.80559-0.0582 1.5968-0.0981 2.359-0.10025 2.4781-7e-3 4.7227 0.28627 6.7365 0.87694 2.9276-3.5962 7.5795-6.9363 16.649-6.9587 7.9279-0.0195 12.055 3.6472 14.791 7.5664 0.0173 0.0248 0.0309 0.0491 0.0481 0.0739 2.8213-0.53693 5.5939-0.91664 8.2464-0.90639 0.16421 6.3e-4 0.32608 9e-3 0.48936 0.0124-0.60886-1.2084-1.334-2.4788-2.2257-3.7563-3.7591-5.3859-10.76-11.014-21.368-10.988zm-23.036 17.367c-1.4705 0.0272-2.9213 0.18389-4.378 0.43924l5.2e-4 -3e-3c-3.1e-4 8.2e-4 -7.2e-4 2e-3 -1e-3 3e-3 -6.2792 0.99985-11.372 3.9295-14.862 8.0041-3.7568 4.3858-5.6161 9.5635-5.9126 15.21 2.4935 1.7399 5.0771 2.9424 7.9848 4.0084-0.0382-0.37256-0.0793-0.74469-0.0951-1.1188-0.20438-4.8476 1.2189-9.5378 4.0974-12.898 2.8785-3.3604 7.1672-5.6365 13.83-5.5856 6.6754 0.051 9.5345 2.0647 11.917 5.4471 0.53673 0.76186 1.0148 1.6439 1.4712 2.5781-9e-5 9e-5 -4.4e-4 -8e-5 -5.2e-4 0 8e-5 1.4e-4 -8e-5 3.9e-4 0 5.2e-4 1.5172 2.6407 2.2509 5.4232 2.9393 8.3451 8e-5 -9e-5 4.2e-4 8e-5 5.1e-4 0 0.3346 1.1562 0.68967 2.1992 1.0232 3.4121 1.1872 4.3179 2.4514 8.9225 4.7211 13.162-1.1e-4 9e-5 -4.1e-4 -9e-5 -5.2e-4 0 7e-5 1.4e-4 -6e-5 3.8e-4 0 5.2e-4 1.2666 2.4893 2.9071 4.4908 4.7382 6.2435 4.0593 3.9629 9.8417 6.7367 17.695 7.0351 8.3367 0.31682 15.144-3.1404 19.435-8.3808 3.5555-4.3424 5.282-9.3621 5.8205-14.914-2.3165-1.173-4.6119-2.566-7.6235-2.8357-0.17072 4.7714-1.7003 9.4066-4.3836 12.684-2.8665 3.5008-6.837 5.6869-12.943 5.4549-5.979-0.22723-9.4449-1.7964-12.002-4.1992h-5.1e-4c-2.3904-2.096-3.4331-4.4746-4.549-6.8377-1.2385-2.8441-2.2469-6.0768-3.1967-9.5311-0.68333-2.4852-1.3956-5.0517-2.2324-7.5819h-5.1e-4c-0.89919-2.6775-2.1464-5.1675-3.4354-7.6351h5.1e-4v-5.1e-4c-0.3211-0.5323-0.5772-1.0924-0.93946-1.6066-3.0497-4.3288-7.9462-7.619-14.622-8.5616-1.5355-0.26182-3.0258-0.36412-4.4963-0.33693zm45.737 0.0558c-2.1218-9e-4 -4.2444 0.13359-6.3701 0.65939-7.3006 1.3618-12.882 4.6053-17.576 8.3575l3.6974 7.2584c5.2057-4.5565 10.849-7.9077 20.053-8.2743 0.37285-0.0148 0.73827-0.0202 1.0955-0.0165 5.3587 0.0553 8.9891 2.1668 11.688 5.4559 0.49276 0.60063 1.0716 1.7123 1.4738 2.4072 3.0131 0.139 5.9998 0.46014 9.2007 1.1074-1.0088-2.8993-2.5264-6.1924-4.491-8.5871-3.8193-4.6554-9.6071-7.9091-16.649-8.3312-0.70713-0.0208-1.4145-0.0364-2.1218-0.0367zm-79.154 17.214-7.0134 3.84s2.9854 5.4809 8.8965 10.199c2.2136 1.7667 5.053 3.3129 8.1792 4.5878 0 0 3.4079 1.4359 5.1805 1.7916 1.7725 0.35568 4.8529 0.54259 4.8529 0.54259l3e-3 3e-3c-7.2e-4 -1e-3 -1e-3 -2e-3 -2e-3 -3e-3 2.7722 0.13147 5.7058-0.0518 8.8417-0.76945 8.7959-2.013 14.855-6.7486 20.048-11.672-0.66545-2.7875-1.7889-5.4514-3.1992-8.0382-5.4824 5.4156-10.649 10.088-18.634 11.915-4.0916 0.93639-7.5471 0.74989-10.619 0.0584-1.5e-4 -8.7e-4 -3.6e-4 -2e-3 -5.1e-4 -3e-3v3e-3c-3.166-0.54481-5.7831-1.8541-8.3338-3.7713-0.42973-0.30791-0.92667-0.57621-1.3281-0.89658-4.6028-3.6736-6.8713-7.787-6.8713-7.787zm91.947 0.76635c-2.449 0.0634-5.0312 0.36798-7.8305 1.1338-9.8594 2.6972-15.291 8.884-20.181 14.326 0.92678 2.6675 2.543 4.9506 4.3532 7.1256 5.6049-6.052 9.6127-11.458 17.94-13.736 2.2983-0.62873 4.3881-0.96049 6.2926-1.0609 0.16724-9e-3 0.33155-0.0135 0.49298-0.0155 1.13-0.0139 2.1274 0.12701 3.145 0.24443 4.0649 0.4069 6.1051 1.5039 7.9787 2.6577 0.36593 0.22212 0.80208 0.41106 1.1405 0.64284 3.9992 2.7393 5.7402 5.8807 5.7402 5.8807l6.9922-3.8865s-2.6706-4.7976-8.2128-8.5937c-1.8033-1.2352-4.0714-2.2647-6.5411-3.1326-2.8977-0.77643-5.8639-1.3055-8.9017-1.5766-1.7e-4 0-3.4e-4 1e-5 -5.1e-4 0-0.78969-0.0243-1.5914-0.0299-2.4076-9e-3zm-80.802 20.997c4.3013 8.1839 13.001 14.866 24.619 15.25 10.19 0.33682 17.418-2.1159 22.982-5.596-1.5667-1.8897-3.1379-3.7707-4.272-6.5075-4.2111 2.7176-9.6044 4.4035-18.444 4.1113-5.9483-0.19662-10.905-2.6003-14.122-5.7186-3.7203 0.0892-7.3662-0.14212-10.763-1.5389z"
     color="#000000"
     fill="#5df"
     style="-inkscape-stroke:none;paint-order:stroke fill markers"
     id="path32743" />
</svg>
