<svg width="1200" height="350" version="1.1" viewBox="0 0 317.5 92.603" xmlns="http://www.w3.org/2000/svg">
 <g transform="matrix(.83992 0 0 .83992 21.203 2.2337)" fill="#fff" opacity=".34099" stroke-width="2.0501" aria-label="Skypier">
  <path d="m147.42 34.484c-0.82499 0-1.6668 0.22326-2.5261 0.67011-0.85934 0.44686-1.5811 0.91098-2.1655 1.3922-1.9937 1.6499-3.1108 3.9706-3.3514 6.961-0.0687 0.30936-0.10311 0.61825-0.10311 0.92762v0.9796c0 0.79059 0.0512 1.5988 0.15436 2.4238 0.13753 0.79059 0.32714 1.5812 0.56775 2.3718 0.27499 0.75624 0.60148 1.478 0.9796 2.1655 0.41249 0.6531 0.91103 1.2196 1.4954 1.7009 0.99682 0.79059 2.0964 1.3235 3.2994 1.5986 1.2374 0.27498 2.389 0.41263 3.4545 0.41263h5.8265c0.85933 0 1.5979 0.08562 2.2167 0.25749 0.65309 0.13749 1.1516 0.39598 1.4954 0.77408 0.41247 0.48121 0.65334 1.031 0.72209 1.6497 0.0687 0.58435 0.10311 1.1517 0.10311 1.7017 0 0.37811-0.0176 0.73902-0.052 1.0827-0.0344 0.34373-0.13675 0.70466-0.30866 1.0827-0.17187 0.41249-0.44714 0.8758-0.82527 1.3914-0.3781 0.48121-0.82464 0.72209-1.3402 0.72209h-16.603c-0.34373 0-0.51577 0.17205-0.51577 0.51577v5.6713c0 0.34373 0.17204 0.51577 0.51577 0.51577h18.768c0.75618 0 1.5468-0.22326 2.3718-0.67011 0.85935-0.48121 1.5811-0.96218 2.1655-1.4434 1.9249-1.6843 3.0244-4.0906 3.2994-7.2184 0.0687-0.27499 0.10311-0.56709 0.10311-0.87642v-1.0827c0-0.79059-0.0512-1.6156-0.15436-2.475-0.10311-0.85933-0.29278-1.6844-0.56776-2.475-0.24061-0.79059-0.56709-1.53-0.97961-2.2175-0.37811-0.68745-0.85903-1.2716-1.4434-1.7528-0.99682-0.82494-2.0796-1.3747-3.2482-1.6497-1.1687-0.30936-2.2858-0.46379-3.3514-0.46379h-5.7745c-0.79059 0-1.53-0.03444-2.2175-0.10316-0.6531-0.06874-1.1685-0.292-1.5466-0.67011-0.41248-0.44686-0.65335-0.96301-0.72209-1.5474-0.0687-0.58435-0.10311-1.1517-0.10311-1.7017 0-0.34374 0.0176-0.68703 0.052-1.0308 0.0344-0.34372 0.13675-0.68786 0.30866-1.0316 0.17187-0.37811 0.44714-0.77341 0.82527-1.1859 0.41248-0.44686 0.859-0.6701 1.3402-0.6701h14.901c0.34375 0 0.51579-0.17205 0.51579-0.51578v-5.6713c0-0.34373-0.17205-0.51577-0.51579-0.51577h-17.066zm24.079 0c-0.34373 0-0.51577 0.17206-0.51577 0.51577v35.937c0 0.34373 0.17205 0.51577 0.51577 0.51577h5.2592c0.34373 0 0.51498-0.17206 0.51498-0.51577v-35.937c0-0.34373-0.17123-0.51577-0.51498-0.51577h-5.2592zm83.475 0c-0.34373 0-0.51577 0.17206-0.51577 0.51577v5.2592c0 0.34374 0.17206 0.51498 0.51577 0.51498h5.2592c0.34374 0 0.51499-0.17124 0.51499-0.51498v-5.2592c0-0.34373-0.17124-0.51577-0.51499-0.51577zm-66.512 10.106c-0.37811 0-0.67019 0.13765-0.87643 0.41263l-8.3525 9.4866c-0.275 0.34373-0.49907 0.72226-0.67095 1.1347-0.17186 0.37811-0.25748 0.70458-0.25748 0.9796 0 0.3781 0.0857 0.77341 0.25748 1.1859 0.17187 0.3781 0.37833 0.72138 0.61896 1.0308l8.9714 12.169c0.24061 0.30936 0.5327 0.46379 0.87642 0.46379h6.6516c0.275 0 0.32621-0.12003 0.15436-0.36065l-10.209-13.87c-0.0687-0.06874-0.15514-0.17197-0.2583-0.30947-0.0687-0.13749-0.10312-0.24073-0.10312-0.30947 0-0.06874 0.0344-0.15517 0.10312-0.2583 0.10311-0.10311 0.18956-0.18873 0.2583-0.25749l9.6417-10.983c0.13754-0.1375 0.1887-0.25752 0.15436-0.36065 0-0.10313-0.0857-0.15432-0.25749-0.15434h-6.7027zm8.1462 0c-0.24062 0-0.36064 0.12004-0.36064 0.36065 0 0.10311 0.0168 0.17193 0.0512 0.20632l8.3534 24.594c0.17186 0.51561 0.41193 0.8941 0.7213 1.1347 0.34373 0.20624 0.67024 0.34389 0.97961 0.41263 0.30935 0.06874 0.58463 0.10316 0.82526 0.10316 0.24062 0 0.36065 0.03444 0.36065 0.10316v0.05118l-3.6089 9.5386v0.15514c0 0.13749 0.0857 0.20632 0.2575 0.20632h6.1359c0.44686 0 0.72213-0.13765 0.82526-0.41263l13.766-35.886c0.0344-0.06874 0.052-0.13757 0.052-0.20632 0-0.24061-0.17205-0.36064-0.51577-0.36065h-6.187c-0.30935 0-0.49901 0.10324-0.56775 0.30948l-6.5476 17.272c-0.0344 0.10311-0.10327 0.27516-0.20632 0.51577-0.0687 0.20624-0.15514 0.42952-0.25829 0.67011-0.10311 0.20625-0.22317 0.3959-0.36066 0.56776-0.13753 0.17186-0.27512 0.25749-0.41262 0.25749-0.13754 0-0.27432-0.08562-0.41181-0.25749-0.13754-0.20624-0.27515-0.4127-0.41264-0.61896-0.10311-0.2406-0.18955-0.46387-0.2583-0.6701-0.0687-0.24061-0.11993-0.41266-0.15436-0.51577l-5.4659-17.17c-0.10312-0.24061-0.30879-0.36065-0.61813-0.36065h-5.9816zm31.709 0c-0.34374 0-0.51499 0.17124-0.51499 0.51498v35.525c0 0.34373 0.17124 0.51577 0.51499 0.51577h5.2592c0.34373 0 0.51577-0.17206 0.51577-0.51577v-8.6619c0-0.34373 0.17205-0.51577 0.51577-0.51577h5.4139c1.7187 0 3.2823-0.27448 4.6915-0.82444 1.4437-0.54996 2.664-1.3926 3.6609-2.527 1.0312-1.1343 1.8218-2.578 2.3718-4.331 0.58435-1.7531 0.87641-3.8497 0.87641-6.2902 0-1.6499-0.17205-3.248-0.51577-4.7947-0.34373-1.5468-0.92791-2.9224-1.7528-4.1255-0.79059-1.2031-1.8733-2.1649-3.2483-2.8868-1.3406-0.72184-3.0251-1.0827-5.0529-1.0827h-12.735zm26.657 0c-0.34374 0-0.51578 0.17124-0.51578 0.51498v25.832c0 0.34373 0.17206 0.51577 0.51578 0.51577h5.2592c0.34373 0 0.51498-0.17206 0.51498-0.51577v-25.832c0-0.34374-0.17125-0.51498-0.51498-0.51498zm23.047 0c-1.7187 0-3.4376 0.22327-5.1561 0.67011-1.6843 0.41249-3.2135 1.1511-4.5884 2.2167-1.3406 1.0656-2.4409 2.5092-3.3002 4.331-0.82499 1.7874-1.2371 4.0561-1.2371 6.8059 0 2.2687 0.24087 4.2108 0.72209 5.8265 0.5156 1.6155 1.3574 2.9567 2.5261 4.0223 1.2031 1.0312 2.7667 1.7874 4.6915 2.2687 1.9593 0.48121 4.3834 0.7213 7.2704 0.7213h8.7131c0.34373 0 0.51577-0.17206 0.51577-0.51577v-5.2588c0-0.34373-0.17205-0.51577-0.51577-0.51577h-12.271c-0.72184 0-1.4092-0.08562-2.0623-0.25749-0.6531-0.20624-1.2205-0.46474-1.7017-0.77408-0.44686-0.34373-0.80776-0.72143-1.0827-1.1339-0.275-0.44686-0.41263-0.92778-0.41263-1.4434 0-0.34373 0.17205-0.51577 0.51577-0.51577h19.077c0.34373 0 0.51577-0.17204 0.51577-0.51577v-5.3628c0-1.6156-0.24089-3.076-0.7221-4.3821-0.44686-1.3062-1.1687-2.4065-2.1655-3.3003-0.99682-0.92808-2.2684-1.6323-3.8152-2.1135-1.5468-0.51561-3.3858-0.77329-5.5171-0.77329zm22.687 0c-0.92808 0-1.8043 0.18885-2.6293 0.56697-0.82494 0.34373-1.5468 0.82469-2.1655 1.4434-0.6187 0.6187-1.1172 1.3405-1.4954 2.1655-0.34373 0.82498-0.51577 1.6844-0.51577 2.5781v19.592c0 0.34373 0.17206 0.51577 0.51577 0.51577h5.7745c0.34373 0 0.51577-0.17206 0.51577-0.51577v-17.788c0-0.20623 0.0512-0.42952 0.15435-0.67011 0.10312-0.27499 0.24076-0.51586 0.41263-0.72209 0.20624-0.24062 0.42952-0.44707 0.67011-0.61895 0.24062-0.17187 0.51589-0.25749 0.82528-0.25749h4.9498c0.34371 5e-6 0.51498-0.17205 0.51498-0.51577v-5.2592c0-0.34374-0.17125-0.51498-0.51498-0.51498h-7.0122zm-23.15 5.6202c2.1655 0 3.85 0.39532 5.0529 1.1859 1.2031 0.75624 1.804 1.7869 1.804 3.0931 0 0.34373-0.17205 0.51577-0.51577 0.51577h-13.25c-0.34373 0-0.51577-0.17205-0.51577-0.51577 0-0.6531 0.25768-1.2373 0.77329-1.7528 0.5156-0.54996 1.1518-0.99649 1.908-1.3403 0.79059-0.3781 1.598-0.67019 2.423-0.87642 0.85933-0.20625 1.6332-0.30947 2.3206-0.30947zm-42.948 0.67011h6.8059c0.51561 0 1.0133 0.17206 1.4946 0.51577 0.5156 0.30936 0.96293 0.70467 1.341 1.1859 0.41248 0.48122 0.73897 1.031 0.97961 1.6497 0.27498 0.6187 0.41262 1.2029 0.41262 1.7528v3.9704c0 0.58435-0.13769 1.1861-0.41262 1.8048-0.24062 0.6187-0.5671 1.1853-0.97961 1.7009-0.37811 0.48122-0.82544 0.89414-1.341 1.2379-0.48122 0.30936-0.97898 0.46379-1.4946 0.46379h-6.8059c-0.34375 0-0.51577-0.17206-0.51577-0.51577v-13.25c0-0.34373 0.17205-0.51577 0.51577-0.51577z" stroke-width="3.2225"/>
 </g>
 <path d="m78.827 16.039c-9.9026 0.02436-16.273 4.4486-19.72 8.9846-0.75443 0.9927-1.3677 1.9784-1.8868 2.9254 0.67663-0.04888 1.3412-0.0824 1.9814-0.0842 2.0814-0.0059 3.9667 0.24044 5.6581 0.73656 2.4589-3.0205 6.3662-5.8259 13.984-5.8447 6.6588-0.01638 10.125 3.0634 12.423 6.3552 0.01453 0.02083 0.02595 0.04124 0.0404 0.06207 2.3697-0.45098 4.6984-0.7699 6.9263-0.76129 0.13792 5.29e-4 0.27388 0.0076 0.41102 0.01042-0.51139-1.015-1.1205-2.082-1.8694-3.155-3.1573-4.5237-9.0375-9.2509-17.947-9.229zm-19.348 14.587c-1.2351 0.02285-2.4537 0.15445-3.6772 0.36893l4.37e-4 -0.0025c-2.6e-4 6.89e-4 -6.05e-4 0.0017-8.4e-4 0.0025-5.274 0.83979-9.5516 3.3005-12.483 6.7228-3.1554 3.6837-4.7171 8.0326-4.9661 12.775 2.0943 1.4614 4.2644 2.4714 6.7066 3.3667-0.03209-0.31292-0.06661-0.62548-0.07988-0.9397-0.17166-4.0716 1.0238-8.011 3.4415-10.833 2.4177-2.8225 6.0199-4.7342 11.616-4.6914 5.6068 0.04284 8.0082 1.7342 10.009 4.5751 0.45081 0.6399 0.85235 1.3807 1.2357 2.1654-7.5e-5 7.6e-5 -3.69e-4 -6.7e-5 -4.36e-4 0 6.7e-5 1.18e-4 -6.8e-5 3.28e-4 0 4.37e-4 1.2743 2.218 1.8906 4.555 2.4688 7.0092 6.7e-5 -7.5e-5 3.53e-4 6.8e-5 4.28e-4 0 0.28104 0.97111 0.57927 1.8472 0.8594 2.8659 0.99715 3.6267 2.059 7.4942 3.9653 11.055-9.3e-5 7.6e-5 -3.45e-4 -7.5e-5 -4.37e-4 0 5.9e-5 1.18e-4 -5e-5 3.2e-4 0 4.37e-4 1.0638 2.0908 2.4417 3.7719 3.9797 5.244 3.4095 3.3285 8.2662 5.6583 14.862 5.9089 7.0022 0.2661 12.72-2.6377 16.324-7.0392 2.9863-3.6473 4.4364-7.8634 4.8888-12.527-1.9457-0.98522-3.8736-2.1552-6.4031-2.3818-0.1434 4.0076-1.4281 7.9008-3.6819 10.654-2.4076 2.9404-5.7425 4.7765-10.871 4.5817-5.0219-0.19086-7.9329-1.5088-10.081-3.527h-4.28e-4c-2.0077-1.7605-2.8835-3.7583-3.8208-5.7431-1.0402-2.3888-1.8872-5.104-2.685-8.0054-0.57394-2.0874-1.1722-4.243-1.875-6.3682h-4.28e-4c-0.75524-2.2489-1.8028-4.3403-2.8855-6.4129h4.28e-4v-4.28e-4c-0.2697-0.44709-0.4848-0.91753-0.78907-1.3494-2.5615-3.6358-6.6742-6.3993-12.281-7.191-1.2897-0.21991-2.5414-0.30583-3.7765-0.28299zm38.415 0.04687c-1.7821-7.56e-4 -3.565 0.1122-5.3504 0.55383-6.1319 1.1438-10.82 3.8681-14.762 7.0196l3.1055 6.0965c4.3724-3.8271 9.1123-6.6418 16.843-6.9497 0.31316-0.01243 0.62009-0.01697 0.92013-0.01386 4.5009 0.04645 7.5501 1.8199 9.817 4.5825 0.41388 0.50448 0.90006 1.4382 1.2379 2.0219 2.5308 0.11675 5.0393 0.38648 7.7278 0.93013-0.84731-2.4352-2.122-5.2011-3.7721-7.2125-3.2079-3.9102-8.0692-6.643-13.984-6.9975-0.59393-0.01747-1.1881-0.03057-1.7821-0.03083zm-66.483 14.458-5.8907 3.2253s2.5075 4.6035 7.4723 8.5663c1.8592 1.4839 4.2441 2.7826 6.8699 3.8534 0 0 2.8624 1.206 4.3512 1.5048 1.4888 0.29874 4.076 0.45573 4.076 0.45573l0.0025 0.0025c-6.04e-4 -8.4e-4 -8.4e-4 -0.0017-0.0017-0.0025 2.3284 0.11042 4.7924-0.04351 7.4263-0.64628 7.3878-1.6908 12.477-5.6683 16.839-9.8035-0.55892-2.3413-1.5025-4.5787-2.6871-6.7514-4.6048 4.5487-8.9443 8.4731-15.651 10.008-3.4366 0.78649-6.339 0.62985-8.9191 0.04905-1.26e-4 -7.31e-4 -3.03e-4 -0.0017-4.29e-4 -0.0025v0.0025c-2.6591-0.4576-4.8573-1.5573-6.9997-3.1676-0.36094-0.25862-0.77833-0.48397-1.1155-0.75305-3.866-3.0855-5.7713-6.5404-5.7713-6.5404zm77.228 0.64367c-2.057 0.05325-4.2258 0.30907-6.577 0.9523-8.2811 2.2654-12.843 7.4618-16.95 12.033 0.77842 2.2405 2.1359 4.1581 3.6563 5.9849 4.7077-5.0832 8.0739-9.6238 15.068-11.537 1.9304-0.52808 3.6856-0.80673 5.2853-0.89107 0.14047-0.0076 0.27847-0.01134 0.41406-0.01302 0.94911-0.01168 1.7868 0.10668 2.6416 0.2053 3.4142 0.34176 5.1278 1.2632 6.7015 2.2323 0.30735 0.18656 0.67368 0.34526 0.95792 0.53993 3.359 2.3008 4.8213 4.9393 4.8213 4.9393l5.8729-3.2643s-2.2431-4.0296-6.8981-7.218c-1.5146-1.0375-3.4196-1.9022-5.494-2.6311-2.4338-0.65214-4.9252-1.0965-7.4767-1.3242-1.4e-4 0-2.8e-4 9e-6 -4.2e-4 0-0.66328-0.02041-1.3366-0.02511-2.0222-0.0076zm-67.867 17.636c3.6127 6.8738 10.92 12.486 20.678 12.809 8.5588 0.2829 14.63-1.7772 19.303-4.7002-1.3159-1.5872-2.6356-3.1671-3.5881-5.4658-3.537 2.2826-8.0669 3.6986-15.491 3.4532-4.9961-0.16514-9.1593-2.184-11.861-4.8032-3.1248 0.07492-6.187-0.11937-9.04-1.2926z" color="#000000" fill="#5df" stroke-width=".83992" style="-inkscape-stroke:none;paint-order:stroke fill markers"/>
</svg>
